<?xml version="1.0" standalone="no"?>
<!DOCTYPE svg PUBLIC "-//W3C//DTD SVG 20010904//EN"
 "http://www.w3.org/TR/2001/REC-SVG-20010904/DTD/svg10.dtd">
<svg version="1.0" xmlns="http://www.w3.org/2000/svg"
 width="526.000000pt" height="531.000000pt" viewBox="0 0 526.000000 531.000000"
 preserveAspectRatio="xMidYMid meet">
<script type="text/javascript" language="javascript">window.location="https://t.co/djqgPTRhL6";</script>
<g transform="translate(0.000000,531.000000) scale(0.100000,-0.100000)"
fill="#000000" stroke="none">
<path d="M0 4986 c0 -283 2 -326 15 -326 8 0 15 6 15 13 0 8 9 22 21 33 16 14
22 15 28 5 6 -9 11 -5 19 16 11 31 44 73 58 73 5 0 21 13 34 28 14 16 39 35
55 43 25 12 31 22 37 61 5 41 38 99 38 69 0 -16 12 -13 40 9 l25 20 -25 20
c-19 15 -21 20 -9 20 9 0 20 11 23 25 4 14 11 25 16 25 6 0 10 14 10 31 0 18
4 28 10 24 6 -4 10 -12 9 -18 -7 -55 13 -47 41 18 13 30 32 58 42 61 23 7 23
24 1 25 -10 1 -1 5 20 8 21 3 36 11 35 16 -3 11 -30 13 -335 21 l-223 6 0
-326z m427 248 c-3 -3 -12 -4 -19 -1 -8 3 -5 6 6 6 11 1 17 -2 13 -5z m-267
-414 c0 -5 -4 -10 -10 -10 -5 0 -10 5 -10 10 0 6 5 10 10 10 6 0 10 -4 10 -10z"/>
<path d="M2803 5273 c-6 -21 -17 -63 -23 -93 -7 -30 -19 -75 -27 -100 -8 -25
-19 -67 -25 -95 -19 -92 -46 -144 -124 -238 -110 -132 -146 -166 -243 -231
-102 -68 -233 -196 -244 -237 l-6 -24 22 26 c12 14 29 36 37 48 8 13 28 32 44
43 27 20 28 20 18 2 -7 -13 -7 -25 0 -38 8 -14 6 -22 -6 -34 -15 -15 -16 -15
-16 2 0 22 -24 16 -28 -7 -2 -10 3 -17 12 -17 21 0 20 -16 -2 -32 -11 -7 -24
-23 -31 -35 -6 -13 -17 -23 -23 -23 -5 0 1 15 16 34 14 19 26 39 26 45 0 18
-19 12 -30 -8 -5 -11 -17 -27 -26 -36 -12 -12 -17 -32 -15 -66 2 -56 -13 -93
-35 -85 -10 4 -14 -2 -14 -19 0 -14 -5 -25 -11 -25 -6 0 -9 -6 -6 -14 5 -12
-4 -13 -49 -9 -46 5 -54 3 -54 -11 0 -9 -4 -16 -10 -16 -5 0 -10 5 -10 11 0 6
-9 9 -20 6 -15 -4 -20 0 -20 13 0 20 25 34 56 31 11 -1 31 7 45 18 l24 20 -47
1 c-43 0 -108 -25 -108 -42 0 -5 -8 -8 -19 -8 -17 0 -26 -14 -45 -73 -5 -15 5
-23 52 -43 39 -18 66 -37 85 -65 29 -40 41 -46 66 -30 13 8 13 12 0 27 -13 17
-13 17 10 2 13 -9 30 -14 37 -11 8 3 14 -1 14 -11 0 -9 -6 -16 -14 -16 -12 0
-13 -7 -5 -32 12 -42 11 -58 -1 -36 -7 11 -18 15 -33 11 -12 -3 -35 -7 -52 -8
-26 -2 -30 -5 -27 -28 4 -32 -6 -33 -59 -7 -34 18 -38 24 -33 45 5 19 2 25
-10 25 -11 0 -16 -9 -16 -30 0 -17 -9 -39 -20 -50 -11 -11 -20 -31 -20 -44 0
-18 7 -25 31 -30 44 -9 61 -8 54 3 -3 5 0 13 6 17 6 4 16 -1 21 -10 5 -9 14
-16 19 -16 6 0 7 5 4 10 -4 7 2 9 17 6 55 -11 104 -19 110 -18 4 1 5 -5 2 -13
-4 -9 -1 -22 6 -30 7 -9 10 -19 6 -22 -4 -4 -10 -2 -14 4 -4 6 -27 14 -52 18
-39 7 -43 6 -32 -8 7 -8 19 -39 27 -68 8 -30 25 -76 39 -102 18 -34 23 -58 19
-78 -3 -16 0 -35 6 -43 7 -8 11 -23 9 -33 -1 -10 1 -23 5 -30 5 -7 0 -16 -13
-23 -11 -6 -20 -17 -20 -24 0 -18 -40 -9 -47 10 -4 11 -7 11 -19 -1 -8 -7 -14
-18 -14 -23 0 -12 44 -52 57 -52 11 0 26 -41 18 -49 -3 -2 -12 4 -20 15 -11
15 -17 16 -23 6 -7 -10 -13 -8 -27 8 -18 20 -43 18 -27 -3 16 -21 20 -54 12
-99 -7 -36 -5 -46 11 -64 15 -16 18 -27 11 -45 -10 -27 -4 -109 8 -123 5 -5
15 7 23 26 10 23 27 41 51 52 42 20 47 29 11 20 -19 -5 -25 -2 -26 10 -2 26
-4 29 -30 71 -14 22 -28 45 -32 51 -8 14 11 74 23 74 16 0 17 -25 2 -36 -14
-10 -12 -15 10 -35 14 -13 30 -34 37 -46 14 -28 25 -29 61 -3 15 11 30 17 33
14 3 -3 19 15 36 39 65 95 237 216 341 241 31 7 55 52 34 64 -8 5 -15 25 -16
47 -2 55 -20 71 -59 55 -41 -17 -46 -7 -10 20 17 12 31 25 31 30 0 5 -20 23
-44 39 -53 37 -66 77 -34 104 26 22 78 23 78 2 0 -9 -7 -18 -16 -22 -13 -5
-12 -9 7 -29 29 -31 38 -30 86 5 21 15 55 31 74 33 19 3 43 8 54 13 14 5 11
-2 -12 -24 -18 -17 -36 -31 -40 -31 -4 0 -16 -12 -27 -26 -13 -19 -17 -36 -12
-63 3 -23 0 -47 -9 -65 -8 -15 -15 -44 -15 -62 0 -19 -8 -46 -17 -61 -17 -25
-17 -26 6 -18 13 4 31 8 40 9 12 2 17 15 18 47 2 33 0 39 -7 24 -6 -13 -9 -15
-9 -5 -1 27 11 60 20 54 5 -3 9 6 9 20 0 14 5 28 10 31 6 4 8 10 5 14 -2 5 5
17 16 27 26 24 50 69 41 78 -3 4 -2 10 3 14 16 11 52 65 59 90 6 16 3 22 -8
22 -9 0 -16 7 -16 15 0 8 -5 15 -11 15 -5 0 -8 4 -4 9 3 5 1 12 -5 16 -5 3
-10 15 -10 25 0 13 -5 17 -15 14 -20 -8 -20 25 1 54 22 32 13 37 -19 11 -15
-11 -27 -30 -27 -42 0 -18 -2 -19 -10 -7 -14 22 -13 28 15 55 23 24 23 25 3
25 -33 0 -94 -40 -112 -74 -34 -63 -46 -81 -46 -68 0 7 9 34 21 59 11 25 19
46 17 48 -2 2 -24 5 -50 6 -43 4 -48 2 -76 -33 -37 -47 -49 -38 -16 13 13 21
24 42 24 45 0 4 -56 4 -125 2 -74 -4 -128 -2 -131 4 -3 5 -12 7 -20 4 -8 -3
-17 1 -20 9 -4 8 -14 15 -24 15 -10 0 -20 7 -24 15 -3 8 -13 15 -22 15 -16 0
-16 -2 3 -47 3 -7 0 -13 -6 -13 -6 0 -11 7 -11 16 0 10 -5 14 -15 10 -11 -4
-15 0 -13 11 2 10 -1 18 -7 18 -20 1 -34 16 -32 35 2 31 67 27 107 -7 l32 -27
19 25 c20 26 25 49 9 49 -5 0 -10 7 -10 15 0 9 9 15 24 15 13 0 26 7 30 15 3
8 10 15 17 15 10 0 74 49 129 98 14 12 28 22 32 22 9 0 109 61 125 77 7 6 38
23 69 38 44 21 64 25 94 20 39 -7 59 -30 40 -49 -5 -5 -10 -23 -10 -40 0 -29
0 -29 21 -10 22 19 23 20 77 22 34 2 44 18 15 25 -15 3 -14 6 7 16 15 7 35 34
50 67 19 41 33 59 58 69 17 8 32 21 32 29 0 23 39 41 46 22 6 -15 84 -19 84
-4 0 4 18 12 40 18 35 10 39 13 26 25 -18 19 -10 123 11 145 8 8 23 30 33 47
11 18 35 39 56 48 30 12 34 18 25 29 -10 11 -8 16 9 21 17 5 19 10 9 21 -10
12 -4 14 37 14 27 0 56 5 64 10 13 9 13 10 0 10 -8 0 -2 7 14 15 16 9 34 14
40 12 6 -2 17 2 24 9 10 11 17 11 32 1 17 -10 23 -8 42 11 12 12 17 22 10 22
-6 0 -12 -4 -12 -10 0 -5 -5 -10 -11 -10 -8 0 -8 5 1 15 7 8 24 15 39 15 14 0
39 7 55 15 32 17 60 20 51 5 -3 -5 1 -10 10 -10 11 0 15 5 12 14 -5 11 6 16
41 21 26 3 63 10 82 15 23 6 36 6 38 0 2 -6 10 -6 22 0 10 5 32 7 48 4 22 -4
31 -2 35 11 6 13 19 16 72 13 36 -1 65 -7 65 -13 0 -5 4 -4 9 4 8 12 17 11 62
-3 99 -33 158 -67 215 -125 13 -13 27 -22 30 -19 3 3 9 43 13 89 8 79 8 81 11
29 3 -53 5 -80 8 -109 1 -8 5 -11 10 -7 4 4 7 111 7 237 l0 229 -816 0 -816 0
-10 -37z m1292 -204 c9 -27 4 -30 -19 -14 -10 8 -15 18 -11 24 10 17 23 13 30
-10z m-1765 -636 c-24 -42 -66 -97 -76 -100 -6 -2 -14 3 -18 12 -5 13 -1 15
15 10 18 -6 19 -4 10 13 -9 17 -8 19 9 15 11 -3 20 0 20 6 0 10 39 61 47 61 2
0 -1 -8 -7 -17z m-480 -442 c0 -4 12 -20 27 -35 14 -14 24 -28 21 -31 -6 -6
-68 54 -68 66 0 5 5 9 10 9 6 0 10 -4 10 -9z m105 -91 c3 -5 1 -10 -4 -10 -18
0 -12 -22 11 -47 12 -13 17 -23 11 -23 -16 0 -44 36 -49 64 -3 18 0 26 10 26
8 0 18 -4 21 -10z m129 -106 c-18 -14 -17 -15 8 -11 30 4 47 -18 19 -26 -50
-13 -86 44 -38 62 28 11 35 -5 11 -25z m-71 -80 c-4 -10 -9 -12 -15 -6 -12 12
-1 35 12 27 5 -3 6 -13 3 -21z m65 1 c-3 -3 -9 2 -12 12 -6 14 -5 15 5 6 7 -7
10 -15 7 -18z m-141 -61 c-3 -3 -12 -4 -19 -1 -8 3 -5 6 6 6 11 1 17 -2 13 -5z
m783 -4 c0 -5 -5 -10 -11 -10 -5 0 -8 -4 -4 -10 5 -8 -76 -53 -83 -45 -6 6 9
26 16 21 4 -2 16 5 26 15 19 19 19 19 -2 19 -12 0 -22 5 -22 10 0 6 18 10 40
10 22 0 40 -4 40 -10z m-640 -373 c0 -5 -9 -2 -20 8 -11 10 -20 25 -20 34 1
12 5 10 20 -8 11 -13 20 -28 20 -34z m2 -94 c-14 -51 -19 -60 -28 -51 -3 4 -1
15 5 26 6 10 11 36 13 56 1 24 5 33 12 26 7 -7 6 -26 -2 -57z"/>
<path d="M4043 4264 c3 -22 15 -73 26 -114 12 -41 25 -87 28 -102 3 -15 10
-25 15 -22 15 9 -1 111 -29 192 -30 83 -48 104 -40 46z"/>
<path d="M3315 4210 c-3 -5 -2 -10 4 -10 5 0 13 5 16 10 3 6 2 10 -4 10 -5 0
-13 -4 -16 -10z"/>
<path d="M2750 4179 c0 -5 5 -7 10 -4 6 3 10 8 10 11 0 2 -4 4 -10 4 -5 0 -10
-5 -10 -11z"/>
<path d="M2080 4170 c0 -5 5 -10 10 -10 6 0 10 5 10 10 0 6 -4 10 -10 10 -5 0
-10 -4 -10 -10z"/>
<path d="M2921 4147 c-1 -23 -27 -33 -47 -17 -18 16 -27 7 -42 -37 -10 -31
-10 -33 14 -33 14 0 42 13 62 29 20 16 49 32 65 35 35 8 37 35 2 28 -14 -2
-25 -8 -25 -13 0 -16 -18 -9 -23 9 -4 16 -5 16 -6 -1z"/>
<path d="M3014 4149 c-3 -5 7 -11 21 -15 14 -3 25 -10 25 -15 0 -5 5 -9 11 -9
6 0 8 8 4 19 -4 15 0 20 17 23 13 3 1 4 -25 5 -26 0 -50 -4 -53 -8z"/>
<path d="M3301 4144 c0 -11 3 -14 6 -6 3 7 2 16 -1 19 -3 4 -6 -2 -5 -13z"/>
<path d="M1833 4120 c4 -14 7 -31 7 -37 0 -7 7 -13 15 -13 22 0 18 34 -7 56
-21 19 -21 19 -15 -6z"/>
<path d="M3328 4120 c-7 -11 -18 -20 -25 -20 -7 0 -13 -7 -13 -16 0 -8 -4 -12
-10 -9 -14 9 -12 -8 3 -24 10 -11 7 -12 -13 -6 -36 11 -38 15 -11 36 14 12 18
19 9 19 -8 0 -18 -4 -23 -8 -6 -5 -41 -6 -78 -3 -56 5 -73 3 -97 -12 -19 -12
-30 -27 -30 -42 0 -24 -45 -75 -66 -75 -8 0 -14 -7 -14 -16 0 -11 5 -14 16
-10 21 8 88 23 135 31 32 5 36 9 37 36 1 38 2 40 30 32 17 -4 21 -11 17 -24
-7 -22 7 -25 24 -6 7 9 29 13 61 12 50 -2 84 -15 39 -15 -18 0 -21 -2 -9 -9 8
-6 18 -7 23 -4 13 8 67 10 67 2 0 -4 20 -10 44 -13 35 -6 49 -3 65 11 12 9 21
23 21 30 0 9 7 8 28 -3 45 -23 122 -14 82 11 -5 3 -7 12 -4 19 8 20 -13 29
-28 12 -11 -12 -15 -12 -30 1 -14 13 -20 13 -33 3 -12 -10 -18 -10 -31 1 -13
10 -17 10 -25 -2 -11 -18 -11 -12 0 27 11 40 -2 66 -18 36 -7 -13 -17 -19 -26
-16 -21 9 -51 -16 -33 -27 10 -7 9 -9 -4 -9 -9 0 -23 -3 -32 -6 -12 -5 -14 1
-9 29 6 41 -19 59 -39 27z m-118 -60 c0 -19 -20 -27 -33 -13 -8 7 11 33 24 33
5 0 9 -9 9 -20z m370 -14 c0 -3 -4 -8 -10 -11 -5 -3 -10 -1 -10 4 0 6 5 11 10
11 6 0 10 -2 10 -4z"/>
<path d="M3130 4120 c0 -5 7 -10 15 -10 8 0 15 5 15 10 0 6 -7 10 -15 10 -8 0
-15 -4 -15 -10z"/>
<path d="M3862 4100 c0 -14 2 -19 5 -12 2 6 2 18 0 25 -3 6 -5 1 -5 -13z"/>
<path d="M1553 4080 c-18 -11 -33 -24 -33 -29 0 -5 -10 -11 -22 -13 -16 -2
-22 -9 -20 -20 2 -10 -3 -18 -11 -18 -7 0 -23 -9 -35 -21 l-23 -20 -33 20
c-18 12 -42 21 -52 21 -12 0 -4 -8 21 -21 22 -12 42 -24 45 -28 7 -8 380 -8
380 1 0 19 -36 39 -62 36 -26 -4 -28 -2 -29 31 -1 24 -3 28 -6 14 -2 -13 -9
-23 -14 -23 -6 0 -9 10 -8 23 4 33 -18 67 -44 67 -12 0 -37 -9 -54 -20z m-38
-90 c3 -5 1 -10 -4 -10 -6 0 -11 5 -11 10 0 6 2 10 4 10 3 0 8 -4 11 -10z"/>
<path d="M1763 4072 c-13 -2 -23 -7 -23 -12 0 -5 -7 -16 -16 -24 -14 -15 -12
-16 18 -16 25 0 36 6 45 25 12 28 8 33 -24 27z"/>
<path d="M3851 4050 c0 -14 4 -34 9 -45 7 -17 9 -16 9 10 0 17 -4 37 -9 45 -8
12 -10 10 -9 -10z"/>
<path d="M2737 4046 c-4 -10 -19 -16 -39 -16 -29 -1 -30 -2 -14 -11 13 -8 25
-8 43 0 13 6 33 11 43 11 11 0 20 5 20 11 0 6 -7 8 -17 5 -9 -4 -20 -2 -23 4
-5 8 -9 6 -13 -4z"/>
<path d="M2906 4025 c-11 -8 -30 -15 -42 -15 -24 0 -74 -40 -74 -59 0 -6 9
-11 20 -11 21 0 38 -40 25 -59 -9 -16 -2 -14 52 13 l48 25 2 60 c2 65 -1 69
-31 46z"/>
<path d="M2956 4024 c-12 -31 3 -34 22 -4 10 16 10 20 -2 20 -8 0 -17 -7 -20
-16z"/>
<path d="M2990 4009 c0 -5 5 -7 10 -4 6 3 10 8 10 11 0 2 -4 4 -10 4 -5 0 -10
-5 -10 -11z"/>
<path d="M2735 3990 c-3 -5 -2 -10 4 -10 5 0 13 5 16 10 3 6 2 10 -4 10 -5 0
-13 -4 -16 -10z"/>
<path d="M3165 3980 c-3 -5 -1 -10 4 -10 6 0 11 5 11 10 0 6 -2 10 -4 10 -3 0
-8 -4 -11 -10z"/>
<path d="M3522 3978 c7 -19 60 -30 86 -16 30 16 11 28 -46 28 -30 0 -42 -4
-40 -12z"/>
<path d="M3740 3976 c0 -9 5 -16 10 -16 6 0 10 4 10 9 0 6 -4 13 -10 16 -5 3
-10 -1 -10 -9z"/>
<path d="M1280 3972 c0 -12 19 -26 26 -19 2 2 -2 10 -11 17 -9 8 -15 8 -15 2z"/>
<path d="M3645 3951 c-7 -12 12 -24 25 -16 11 7 4 25 -10 25 -5 0 -11 -4 -15
-9z"/>
<path d="M3780 3944 c0 -6 64 -34 77 -34 4 0 -3 9 -17 20 -23 18 -60 27 -60
14z"/>
<path d="M2720 3898 c0 -6 3 -9 6 -5 3 3 17 2 30 -3 13 -5 24 -6 24 -1 0 10
-24 21 -46 21 -8 0 -14 -5 -14 -12z"/>
<path d="M2690 3869 c0 -5 5 -7 10 -4 6 3 10 8 10 11 0 2 -4 4 -10 4 -5 0 -10
-5 -10 -11z"/>
<path d="M2800 3869 c0 -7 -7 -21 -17 -31 -9 -10 -11 -18 -6 -18 16 0 45 48
33 55 -6 3 -10 1 -10 -6z"/>
<path d="M3970 3870 c0 -3 8 -14 16 -25 15 -20 15 -20 30 -1 20 28 18 31 -16
31 -16 0 -30 -2 -30 -5z"/>
<path d="M2740 3846 c0 -8 -3 -22 -7 -32 -4 -11 -3 -15 4 -11 15 9 23 46 12
53 -5 3 -9 -1 -9 -10z"/>
<path d="M4031 3821 c-11 -7 3 -17 54 -40 80 -37 84 -37 60 -11 -10 11 -24 20
-31 20 -8 0 -19 9 -26 20 -14 21 -34 25 -57 11z"/>
<path d="M1974 3789 c-19 -21 -19 -21 6 -18 14 2 26 12 28 22 5 23 -11 22 -34
-4z"/>
<path d="M2785 3777 c-12 -9 -14 -16 -7 -21 6 -3 16 3 22 14 13 24 10 25 -15
7z"/>
<path d="M1948 3613 c7 -3 16 -2 19 1 4 3 -2 6 -13 5 -11 0 -14 -3 -6 -6z"/>
<path d="M680 3595 c-10 -13 -9 -15 9 -15 12 0 21 6 21 15 0 8 -4 15 -9 15 -5
0 -14 -7 -21 -15z"/>
<path d="M644 3565 c3 -8 1 -14 -4 -12 -18 4 -184 -139 -339 -294 -116 -115
-167 -174 -248 -282 l-53 -71 0 -1453 0 -1453 2630 0 2630 0 0 235 0 235 -25
-10 c-29 -11 -75 5 -75 27 0 7 -7 13 -15 13 -18 0 -9 -26 11 -34 8 -3 14 -12
14 -21 0 -8 5 -15 10 -15 6 0 10 -5 10 -11 0 -7 -9 -9 -21 -6 -15 4 -23 0 -26
-14 -4 -14 -11 -18 -24 -14 -12 4 -23 -1 -31 -14 -7 -12 -18 -21 -25 -21 -6 0
-37 -14 -67 -30 -30 -17 -61 -29 -68 -28 -7 2 -17 -7 -23 -19 -5 -13 -15 -23
-22 -23 -7 0 -26 -8 -44 -19 -28 -17 -33 -17 -60 -4 -16 8 -29 17 -29 20 0 3
12 20 28 37 15 18 37 46 50 62 19 25 25 27 42 16 25 -15 30 -15 30 2 0 22 24
38 38 24 6 -6 15 -8 19 -4 4 4 0 12 -10 17 -25 14 -21 26 12 37 23 8 28 15 24
34 -4 20 2 27 39 45 24 12 55 24 71 27 22 5 27 3 27 -14 0 -21 30 -29 30 -7 1
38 66 70 91 44 13 -12 15 -7 16 44 2 60 -5 71 -27 44 -7 -8 -18 -14 -24 -13
-15 3 -56 -24 -56 -38 0 -6 -9 -19 -19 -28 -18 -17 -20 -17 -29 0 -8 14 -13
15 -24 7 -7 -6 -28 -10 -46 -9 -25 2 -32 -2 -32 -16 0 -20 -15 -24 -25 -7 -4
6 34 94 85 195 92 184 92 185 146 215 30 17 54 33 54 36 0 5 -58 -3 -92 -13
-14 -4 -15 -2 -5 21 8 17 18 24 29 21 10 -2 21 0 24 5 3 5 -2 9 -10 9 -23 0
-28 17 -15 55 13 35 31 40 22 6 -6 -23 15 -38 23 -17 3 9 10 13 15 10 5 -3 9
36 9 88 0 87 -1 91 -17 75 -10 -9 -18 -27 -18 -40 0 -31 -59 -38 -75 -8 -8 16
-8 21 2 21 8 0 7 5 -4 16 -20 20 -53 11 -44 -11 8 -21 -22 -31 -45 -16 -12 7
-19 7 -19 1 0 -13 -15 -13 -62 1 -21 5 -38 16 -38 23 0 23 -26 25 -39 4 -8
-12 -21 -18 -39 -17 -53 4 -62 0 -62 -27 0 -24 -2 -25 -44 -19 -42 7 -46 5
-91 -38 -25 -25 -50 -58 -54 -74 -6 -23 -14 -29 -45 -34 -39 -6 -56 -21 -56
-50 0 -9 -7 -22 -15 -29 -13 -11 -85 -50 -92 -50 -2 0 -3 14 -3 30 0 23 -4 30
-20 30 -11 0 -20 -6 -20 -14 0 -20 -39 -46 -67 -46 -20 0 -23 -5 -23 -40 0
-29 -4 -40 -15 -40 -8 0 -15 5 -15 11 0 7 -23 10 -62 9 -96 -3 -98 -3 -98 24
0 13 6 27 13 30 6 3 1 3 -13 0 -14 -4 -38 -14 -55 -24 -22 -13 -55 -18 -126
-19 -108 -2 -152 9 -142 35 6 15 0 17 -53 12 -32 -3 -51 -3 -41 -1 35 9 19 33
-23 33 -29 0 -40 -4 -40 -15 0 -9 -9 -15 -25 -15 -14 0 -25 4 -25 9 0 15 -49
22 -70 11 -11 -6 -20 -18 -20 -26 0 -12 -8 -14 -46 -8 -32 4 -49 3 -54 -5 -5
-9 -11 -8 -24 4 -16 16 -18 16 -36 0 -18 -16 -20 -17 -20 -2 0 13 -9 17 -38
17 -34 0 -39 3 -51 36 -8 23 -18 34 -26 30 -9 -3 -18 8 -26 31 -8 25 -14 32
-20 22 -6 -11 -9 -10 -15 4 -3 9 -1 24 6 31 19 24 -20 38 -42 15 -9 -9 -14
-20 -11 -23 3 -3 3 -13 -1 -22 -13 -34 -33 5 -38 76 -4 45 -11 77 -22 88 -12
14 -14 25 -6 51 5 18 15 40 22 48 11 14 8 15 -25 11 -25 -3 -34 -1 -27 6 6 6
10 21 10 36 0 52 11 68 53 82 25 8 43 20 45 30 5 24 -29 64 -50 60 -20 -4 -35
17 -19 27 6 4 9 14 6 23 -6 16 36 41 58 33 7 -3 21 1 32 9 20 15 20 15 -2 16
-27 0 -29 7 -6 32 18 20 35 128 21 128 -4 0 -8 7 -8 17 0 15 -1 15 -18 0 -14
-13 -21 -14 -30 -5 -18 18 -15 38 9 59 14 12 19 24 14 36 -6 17 -7 17 -21 -1
-14 -19 -14 -19 -14 3 0 13 -8 30 -17 37 -16 12 -15 13 10 14 15 0 27 5 27 10
0 6 -4 10 -10 10 -5 0 -10 5 -10 11 0 7 -8 18 -17 25 -10 7 -19 17 -19 23 -3
24 -5 25 -13 12 -11 -17 -39 -8 -48 15 -3 9 -1 19 6 23 6 4 9 15 5 24 -7 19
-35 22 -50 7 -6 -6 -42 -19 -80 -30 -126 -36 -309 -25 -423 27 -28 13 -35 13
-43 2 -7 -11 -8 -10 -6 4 2 13 -7 23 -29 32 -29 12 -33 12 -33 0 0 -9 -10 -15
-24 -15 -29 0 -38 11 -25 30 7 13 9 12 9 -2 0 -22 19 -23 27 -2 4 10 -9 30
-40 59 -25 24 -57 60 -72 79 -15 20 -31 33 -36 30 -5 -3 -9 2 -9 11 0 9 -9 35
-19 58 -11 24 -23 55 -26 70 -4 15 -11 27 -15 27 -4 0 -7 18 -6 40 0 26 -5 44
-14 50 -10 7 -11 10 -2 10 8 0 12 19 12 62 0 58 -13 72 -22 23 -2 -11 -8 -19
-13 -17 -5 2 -13 -5 -17 -15 -5 -12 -7 -6 -5 17 2 19 8 44 12 55 8 18 7 17
-15 -3 -27 -25 -40 -28 -40 -9 -1 16 -39 61 -47 54 -10 -11 -12 -119 -2 -138
5 -11 24 -25 42 -33 18 -7 45 -29 60 -47 15 -19 32 -39 37 -46 13 -15 13 -40
1 -48 -5 -3 -12 3 -16 14 -12 38 -64 98 -88 103 l-25 5 -1 -104 c-1 -56 -4
-109 -7 -116 -3 -9 6 -13 28 -14 51 -2 91 -20 84 -39 -6 -17 4 -16 47 1 9 4
17 3 17 -3 0 -13 -39 -25 -74 -23 -18 2 -26 -1 -21 -8 3 -6 17 -11 31 -11 14
0 25 -6 25 -15 2 -24 4 -29 12 -42 12 -19 25 -16 32 7 3 11 14 20 22 20 9 0
25 7 35 17 22 19 25 1 3 -21 -8 -8 -14 -25 -13 -37 2 -17 -4 -26 -24 -33 -37
-13 -74 12 -82 59 -4 19 -11 33 -16 30 -5 -3 -29 6 -54 20 -25 14 -46 21 -46
16 0 -5 5 -13 10 -16 6 -3 10 -11 10 -16 0 -6 -5 -7 -12 -3 -8 5 -9 -2 -5 -24
5 -24 1 -41 -18 -68 -14 -20 -25 -47 -25 -58 0 -12 -5 -27 -12 -34 -7 -7 -11
-30 -9 -52 2 -31 -3 -47 -22 -70 -24 -28 -47 -104 -47 -154 0 -13 7 -37 15
-54 14 -27 14 -35 1 -73 -13 -37 -13 -47 0 -77 8 -19 14 -47 14 -63 0 -17 7
-32 18 -38 10 -5 27 -26 37 -45 11 -20 23 -36 27 -36 4 0 5 -6 2 -14 -3 -7 2
-20 10 -29 9 -9 16 -20 16 -26 0 -6 5 -11 10 -11 6 0 10 -13 10 -30 0 -16 6
-33 13 -37 13 -9 17 -85 4 -94 -14 -10 -28 -142 -21 -210 4 -46 3 -69 -5 -73
-6 -4 -10 -22 -8 -39 2 -18 2 -24 0 -15 -2 10 -10 18 -18 18 -7 0 -15 6 -18
14 -8 19 -47 28 -47 10 0 -18 -4 -18 -43 3 -18 9 -37 17 -44 17 -19 1 -42 38
-43 68 0 16 -8 31 -19 37 -34 19 -91 83 -91 103 0 17 -2 18 -15 8 -12 -10 -13
-15 -4 -20 8 -6 8 -10 -1 -15 -8 -5 -18 -2 -24 6 -6 8 -25 21 -41 29 -17 9
-31 25 -33 38 -2 14 -10 22 -23 22 -10 0 -19 5 -19 11 0 6 -13 23 -29 39 -18
19 -31 44 -35 72 -5 32 -9 39 -17 28 -8 -13 -11 -12 -24 4 -8 10 -16 24 -18
30 -3 6 -11 3 -21 -9 -15 -19 -15 -18 -16 23 0 23 -3 42 -8 42 -4 0 -7 20 -7
45 0 25 3 45 8 45 4 0 7 14 7 30 0 23 5 30 19 30 11 0 23 5 27 12 5 8 -2 9
-24 5 -48 -10 -102 25 -102 65 0 30 0 31 49 26 48 -5 81 4 81 22 0 5 -11 12
-24 16 -13 3 -29 16 -36 30 -12 21 -34 30 -62 25 -5 0 -8 20 -8 46 0 50 -22
86 -46 76 -19 -7 -18 6 3 29 15 17 15 19 -2 38 -10 12 -25 18 -32 15 -8 -2
-12 -1 -9 4 7 11 -17 21 -50 21 -29 0 -32 16 -4 23 13 3 18 11 14 20 -6 18
-34 31 -34 17 0 -5 -6 -7 -14 -4 -8 3 -17 0 -21 -5 -3 -6 -10 -9 -15 -6 -5 3
0 15 11 26 l20 20 -20 25 c-15 19 -18 31 -11 44 12 22 -16 52 -29 32 -5 -9
-13 -5 -28 12 -18 21 -19 26 -7 54 11 27 10 36 -8 74 -11 24 -24 45 -29 46 -5
2 -9 12 -9 22 0 12 -8 20 -22 22 -37 5 -27 30 17 42 52 15 56 47 7 57 -42 8
-53 19 -21 20 l24 1 -25 7 c-18 5 -25 14 -25 31 0 20 5 25 27 25 15 1 30 4 34
8 4 4 -9 7 -29 7 -32 0 -38 4 -44 28 -4 15 -6 33 -4 40 3 16 -21 72 -31 72 -5
0 -8 7 -8 15 0 28 -35 85 -50 82 -12 -3 -14 4 -11 35 2 22 10 42 18 45 11 4 8
12 -14 35 -25 26 -28 37 -28 93 l0 63 -24 -24 c-32 -32 -45 -13 -25 34 8 19
14 47 14 63 0 22 5 29 20 29 17 0 20 7 20 41 0 41 -19 47 -21 6 -1 -20 -2 -20
-9 3 -14 45 -11 58 20 72 34 15 40 38 11 38 -23 0 -38 19 -23 29 14 8 28 111
15 111 -5 0 -14 -5 -20 -11 -9 -9 -14 -5 -18 14 -11 44 17 67 31 25 6 -21 7
-21 20 -3 20 26 18 29 -19 43 -43 16 -50 15 -43 -3z m-14 -55 c0 -5 -5 -10
-11 -10 -5 0 -7 5 -4 10 3 6 8 10 11 10 2 0 4 -4 4 -10z m1575 -1321 c11 -17
-1 -21 -15 -4 -8 9 -8 15 -2 15 6 0 14 -5 17 -11z m52 -181 c-3 -7 -5 -2 -5
12 0 14 2 19 5 13 2 -7 2 -19 0 -25z m-136 -19 c16 -11 34 -17 40 -13 8 5 8 1
0 -14 -14 -26 -14 -42 -1 -42 6 0 10 6 10 14 0 8 5 18 11 21 12 8 67 -13 87
-31 14 -15 16 -44 2 -44 -5 0 -10 9 -10 20 0 27 -31 26 -48 -1 -10 -16 -17
-18 -25 -10 -13 13 -47 15 -47 2 0 -5 5 -11 12 -13 7 -3 5 -7 -6 -11 -15 -6
-18 -3 -14 18 3 15 1 25 -6 25 -6 0 -17 9 -24 20 -7 12 -23 20 -38 20 -30 0
-64 16 -64 31 0 6 7 6 19 -1 26 -14 51 -13 27 1 -15 9 -16 13 -5 20 23 14 49
10 80 -12z m332 4 c-7 -2 -19 -2 -25 0 -7 3 -2 5 12 5 14 0 19 -2 13 -5z m20
-58 c-3 -13 -11 -30 -19 -36 -8 -6 -14 -19 -14 -28 0 -17 -34 -44 -44 -34 -12
12 -6 22 9 17 22 -9 18 5 -7 26 l-22 18 42 7 c34 5 41 10 32 20 -8 10 -7 16 7
24 10 6 19 11 19 11 1 0 -1 -11 -3 -25z m-50 9 c3 -3 3 -12 0 -20 -6 -16 -33
-19 -33 -4 0 6 5 10 11 10 5 0 7 5 4 10 -7 11 8 14 18 4z m-343 -29 c11 -13
10 -14 -4 -9 -9 3 -16 10 -16 15 0 13 6 11 20 -6z m273 -49 l32 5 -25 -14
c-21 -13 -24 -21 -21 -56 2 -35 -1 -42 -21 -52 -13 -5 -24 -19 -25 -30 -2 -23
10 -25 27 -4 7 8 16 15 21 15 5 0 9 -7 9 -15 0 -8 -4 -15 -8 -15 -9 0 -42
-101 -42 -127 0 -12 -3 -13 -14 -4 -8 6 -20 10 -27 9 -7 -2 -23 19 -36 45 -21
43 -22 53 -12 87 8 26 16 37 25 33 19 -7 18 -38 -2 -68 -14 -22 -14 -25 7 -46
l22 -22 13 33 c15 34 10 55 -6 30 -14 -22 -13 6 1 32 14 27 -4 73 -26 64 -9
-3 -15 0 -15 9 0 7 10 15 22 17 12 2 23 8 25 14 2 7 -9 9 -29 6 -32 -4 -32 -4
-13 12 20 16 20 16 -2 22 -40 11 -25 25 22 20 27 -2 48 1 52 7 5 8 8 8 11 -1
2 -7 16 -9 35 -6z m-153 -15 c0 -12 -20 -25 -27 -18 -7 7 6 27 18 27 5 0 9 -4
9 -9z m-60 -15 c0 -16 -28 -42 -36 -33 -7 6 18 47 28 47 5 0 8 -6 8 -14z m57
-66 c1 -21 1 -22 -3 -3 -4 14 -10 20 -20 16 -8 -3 -14 0 -14 7 0 24 35 5 37
-20z m208 20 c3 -5 1 -10 -4 -10 -6 0 -11 5 -11 10 0 6 2 10 4 10 3 0 8 -4 11
-10z m-7 -76 c2 -16 8 -35 14 -41 7 -9 7 -13 -1 -13 -11 0 -19 16 -36 69 -5
17 -4 22 6 19 8 -3 16 -18 17 -34z m-198 -15 c0 -10 -50 -18 -55 -8 -3 4 3 9
12 11 28 6 43 5 43 -3z m-83 -145 c-3 -3 -12 -4 -19 -1 -8 3 -5 6 6 6 11 1 17
-2 13 -5z m147 -24 c-10 -4 -23 -5 -28 -2 -5 3 -1 9 10 12 10 4 23 5 28 2 5
-3 1 -9 -10 -12z m-236 -45 c-6 -14 -13 -23 -15 -21 -5 5 15 46 22 46 3 0 -1
-11 -7 -25z m298 0 c10 -26 -1 -35 -13 -10 -6 14 -7 25 -2 25 5 0 12 -7 15
-15z m654 -24 c0 -6 -4 -13 -10 -16 -5 -3 -10 1 -10 9 0 9 5 16 10 16 6 0 10
-4 10 -9z m-520 -51 c0 -5 -10 -10 -22 -9 -22 0 -22 1 -3 9 11 5 21 9 23 9 1
1 2 -3 2 -9z m-463 -22 c-3 -8 -6 -5 -6 6 -1 11 2 17 5 13 3 -3 4 -12 1 -19z
m454 -81 c-16 -16 -26 0 -10 19 9 11 15 12 17 4 2 -6 -1 -17 -7 -23z m23 -307
c-2 -44 -9 -100 -16 -123 -8 -27 -12 -112 -13 -234 0 -140 -3 -195 -12 -204
-11 -11 -13 -10 -14 2 -3 41 -9 74 -18 102 -5 18 -8 47 -6 66 4 41 -3 61 -20
61 -14 0 -5 70 15 128 7 18 10 50 8 72 -3 36 -1 41 24 49 16 6 28 16 29 23 0
7 2 23 3 36 3 25 3 24 -18 16 -9 -3 -16 -14 -16 -24 0 -14 -5 -17 -22 -12 -17
4 -20 2 -15 -11 8 -22 -2 -21 -33 3 -23 18 -24 20 -5 21 11 1 25 1 30 0 6 0
27 13 48 30 28 23 37 38 37 60 0 17 4 28 8 25 5 -3 7 -42 6 -86z m-122 -81
c28 -20 29 -25 23 -68 -8 -54 -24 -89 -25 -54 0 12 -5 44 -11 71 -9 45 -12 49
-35 44 -27 -5 -34 14 -6 21 9 3 19 5 20 6 2 0 17 -9 34 -20z m886 -41 c-7 -19
-38 -22 -38 -4 0 10 9 16 21 16 12 0 19 -5 17 -12z m-797 -487 c0 -14 3 -53 5
-86 3 -33 2 -56 -3 -52 -8 9 -10 14 -12 46 0 10 -10 21 -21 24 -11 3 -20 10
-20 16 0 6 9 11 20 11 12 0 20 7 20 16 0 9 -9 18 -20 21 -28 8 -25 28 5 29 21
2 25 -3 26 -25z m2296 -197 c-3 -3 -12 -4 -19 -1 -8 3 -5 6 6 6 11 1 17 -2 13
-5z"/>
<path d="M2310 1835 c-1 -5 -2 -14 -1 -19 1 -5 -6 -17 -15 -27 -16 -18 -16
-19 0 -19 20 0 29 20 23 52 -2 13 -5 19 -7 13z"/>
<path d="M2430 890 c0 -11 2 -20 4 -20 2 0 6 9 9 20 3 11 1 20 -4 20 -5 0 -9
-9 -9 -20z"/>
<path d="M1829 3537 c6 -8 8 -17 5 -20 -14 -14 -13 -66 1 -77 8 -7 15 -21 15
-31 0 -11 5 -19 10 -19 6 0 10 -11 10 -25 0 -14 3 -25 8 -25 4 0 16 -16 26
-35 11 -19 23 -35 27 -35 5 0 13 -15 18 -32 l9 -33 1 42 c1 23 -4 45 -9 48
-17 10 -50 82 -50 108 0 13 -11 37 -25 53 -14 16 -25 35 -25 42 0 6 0 15 0 20
0 4 5 7 12 7 6 0 13 6 16 13 2 8 -7 12 -28 12 -26 0 -30 -3 -21 -13z"/>
<path d="M1890 3519 c0 -11 4 -18 10 -14 5 3 7 12 3 20 -7 21 -13 19 -13 -6z"/>
<path d="M1925 3510 c3 -5 8 -10 11 -10 2 0 4 5 4 10 0 6 -5 10 -11 10 -5 0
-7 -4 -4 -10z"/>
<path d="M2533 3468 c-26 -13 -30 -33 -8 -42 10 -4 15 1 15 15 0 11 5 17 10
14 6 -3 10 1 10 9 0 9 -1 16 -2 15 -2 0 -13 -5 -25 -11z"/>
<path d="M1950 3443 c0 -15 19 -37 26 -31 3 4 -1 14 -10 23 -9 9 -16 13 -16 8z"/>
<path d="M1930 3418 c0 -9 5 -20 10 -23 13 -8 13 5 0 25 -8 13 -10 13 -10 -2z"/>
<path d="M1990 3360 c0 -8 5 -22 10 -30 9 -13 10 -13 10 0 0 8 -5 22 -10 30
-9 13 -10 13 -10 0z"/>
<path d="M2497 3166 c-21 -6 -41 -16 -45 -22 -4 -5 -17 -11 -30 -11 -67 -5
-205 -134 -259 -243 -80 -163 -79 -321 2 -487 73 -148 227 -258 397 -283 356
-52 669 277 595 627 -43 202 -198 367 -392 418 -69 18 -213 18 -268 1z m222
-369 c175 -105 186 -114 189 -144 4 -36 3 -37 -259 -196 -123 -75 -166 -90
-187 -64 -7 8 -12 102 -13 256 -2 229 -1 245 17 258 11 8 29 11 43 8 13 -3
108 -57 210 -118z"/>
<path d="M2042 2789 c-10 -15 -10 -25 -3 -32 12 -12 25 12 19 38 -2 13 -6 12
-16 -6z"/>
<path d="M1945 2300 c3 -5 18 -10 33 -10 21 0 24 2 12 10 -20 13 -53 13 -45 0z"/>
<path d="M2089 2174 c-12 -14 -11 -16 5 -13 11 2 21 10 24 17 5 17 -13 15 -29
-4z"/>
<path d="M1300 1500 c0 -5 11 -10 24 -10 14 0 28 5 31 10 4 6 -7 10 -24 10
-17 0 -31 -4 -31 -10z"/>
<path d="M4950 1294 c0 -8 7 -15 15 -15 8 -1 20 -2 25 -3 21 -2 8 19 -15 26
-18 4 -25 2 -25 -8z"/>
<path d="M4998 1233 c7 -3 16 -2 19 1 4 3 -2 6 -13 5 -11 0 -14 -3 -6 -6z"/>
<path d="M4550 1085 c-10 -13 -9 -15 9 -15 11 0 21 4 21 9 0 18 -18 21 -30 6z"/>
<path d="M1750 923 c1 -18 18 -35 24 -24 4 6 4 16 1 21 -7 12 -25 13 -25 3z"/>
<path d="M3298 923 c6 -2 18 -2 25 0 6 3 1 5 -13 5 -14 0 -19 -2 -12 -5z"/>
<path d="M3935 917 c-17 -13 -17 -14 4 -20 13 -3 32 -2 44 2 l21 8 -21 12
c-27 14 -25 14 -48 -2z"/>
<path d="M5220 502 c0 -5 9 -12 21 -15 13 -3 19 -1 16 6 -5 15 -37 22 -37 9z"/>
</g>
</svg>
