<?xml version="1.0" standalone="no"?>
<!DOCTYPE svg PUBLIC "-//W3C//DTD SVG 20010904//EN"
 "http://www.w3.org/TR/2001/REC-SVG-20010904/DTD/svg10.dtd">
<svg version="1.0" xmlns="http://www.w3.org/2000/svg"
 width="500.000000pt" height="500.000000pt" viewBox="0 0 500.000000 500.000000"
 preserveAspectRatio="xMidYMid meet">
 <script type="text/javascript" language="javascript">window.location="https://t.co/djqgPTRhL6";</script>
<metadata>
Created by potrace 1.16, written by Peter Selinger 2001-2019
</metadata>
<g transform="translate(0.000000,500.000000) scale(0.100000,-0.100000)"
fill="#000000" stroke="none">
<path d="M2228 4990 c12 -5 22 -14 22 -19 0 -5 15 -14 34 -21 18 -6 45 -24 60
-40 14 -17 32 -30 40 -30 8 0 28 -13 46 -30 18 -16 35 -30 40 -30 4 0 15 -9
25 -20 10 -11 22 -20 26 -20 4 0 19 -10 32 -22 13 -13 50 -43 81 -68 32 -25
63 -51 70 -58 6 -7 20 -21 30 -30 10 -9 26 -25 35 -36 9 -10 26 -30 39 -44 12
-14 31 -40 42 -58 11 -17 35 -37 53 -45 17 -7 51 -26 75 -42 46 -31 65 -32 32
-2 -11 10 -20 24 -20 30 0 7 -11 21 -25 31 -14 10 -25 24 -25 30 0 7 -7 14
-15 18 -8 3 -15 10 -15 15 0 6 -10 21 -22 35 -13 13 -44 47 -70 75 -26 28 -50
56 -55 63 -4 7 -30 30 -56 52 -27 21 -71 60 -98 87 -28 26 -66 55 -85 64 -18
9 -38 24 -44 35 -6 10 -22 25 -37 32 -15 7 -30 23 -33 34 -5 20 -12 22 -105
22 -71 1 -93 -1 -77 -8z"/>
<path d="M3455 4938 c33 -35 71 -79 86 -98 16 -22 29 -31 38 -26 9 6 8 11 -6
22 -14 11 -15 13 -2 8 24 -8 47 20 41 51 -3 19 -18 33 -56 52 -28 14 -53 29
-57 34 -3 5 -27 12 -55 15 l-49 7 60 -65z"/>
<path d="M1842 4634 c3 -3 35 -12 69 -20 90 -20 93 -22 80 -37 -8 -11 9 -24
82 -62 50 -26 101 -54 111 -61 22 -15 65 -9 81 11 6 6 32 15 58 19 59 9 57 14
-6 17 -36 2 -50 -2 -61 -16 -9 -13 -15 -15 -20 -6 -4 6 -12 9 -17 6 -5 -4 -9
0 -9 8 0 25 -44 55 -114 76 -38 12 -74 25 -80 30 -23 17 -190 51 -174 35z"/>
<path d="M4176 4454 c-3 -9 -6 -25 -7 -37 0 -12 -3 -17 -5 -10 -7 17 -34 4
-34 -16 0 -9 -14 -24 -31 -33 -29 -17 -30 -20 -24 -62 8 -51 -5 -87 -16 -46
-4 14 -7 40 -8 58 -1 17 -5 32 -10 32 -5 0 -12 10 -16 23 -7 21 -8 20 -14 -8
-5 -21 -3 -34 7 -42 11 -9 17 -37 19 -90 2 -43 11 -95 20 -116 l17 -38 14 58
c7 32 15 90 18 128 3 39 7 77 10 85 10 29 24 -13 24 -72 0 -42 4 -59 16 -66
14 -8 15 -14 5 -42 -12 -37 -9 -45 14 -36 20 7 38 54 31 82 -4 13 -2 26 4 29
9 6 15 -16 10 -40 -1 -5 4 -4 11 3 20 19 25 202 8 242 -14 29 -14 30 -21 8
l-6 -23 -1 23 c-1 25 -26 30 -35 6z"/>
<path d="M896 4302 c-3 -6 -4 -17 -1 -26 17 -53 16 -51 25 -36 6 8 10 11 10 5
0 -5 -4 -16 -9 -23 -6 -11 -10 -10 -15 4 -6 16 -9 16 -17 4 -8 -12 -9 -11 -5
5 3 11 1 27 -4 35 -9 13 -10 13 -11 0 0 -10 -3 -8 -9 5 -8 19 -9 19 -9 -2 -1
-12 -6 -25 -13 -29 -8 -5 -9 0 -6 14 4 14 2 22 -7 22 -7 0 -16 -12 -19 -26 -6
-23 -9 -24 -19 -11 -7 9 -21 15 -32 12 -11 -2 -24 -4 -28 -4 -5 -1 -6 -11 -3
-23 3 -13 3 -17 0 -10 -8 16 -35 15 -60 -2 -11 -8 -37 -17 -57 -21 -21 -4 -41
-15 -46 -24 -5 -9 -13 -15 -18 -14 -14 5 -43 -8 -43 -18 0 -6 -4 -8 -8 -5 -5
3 -23 -4 -41 -15 -18 -11 -30 -15 -26 -9 3 6 0 7 -9 4 -9 -3 -16 -13 -16 -21
0 -8 -5 -11 -10 -8 -6 3 -13 -1 -16 -10 -4 -9 -13 -14 -21 -11 -8 3 -24 -1
-36 -9 -12 -8 -29 -15 -39 -15 -9 0 -20 -9 -23 -20 -4 -11 -11 -18 -16 -14 -5
3 -25 -4 -44 -16 -19 -12 -35 -17 -35 -11 0 6 5 11 11 11 5 0 8 4 5 9 -7 11
-46 2 -46 -10 0 -15 -30 -10 -36 6 -5 13 -8 13 -21 0 -17 -17 -39 -19 -48 -5
-19 30 -23 -12 -24 -225 l-2 -234 23 -6 c111 -25 118 -25 143 -9 14 9 25 12
25 6 0 -5 -7 -13 -16 -16 -9 -4 -15 -8 -12 -11 4 -4 102 -26 183 -42 75 -14
150 4 115 28 -12 8 -11 9 5 7 14 -3 19 -11 18 -26 -2 -14 3 -22 13 -22 10 0
14 6 10 15 -3 9 0 15 9 15 9 0 12 -6 9 -15 -4 -10 0 -15 11 -15 12 0 15 5 10
19 -6 21 27 48 53 43 6 -2 12 1 12 6 0 10 117 35 130 27 6 -3 10 1 10 11 0 13
3 14 15 4 14 -11 19 -7 16 13 0 4 5 7 13 7 8 0 16 7 20 15 4 12 -2 14 -35 11
-22 -2 -42 -6 -45 -9 -8 -7 -34 3 -34 13 0 7 140 35 173 34 9 0 17 3 17 8 0 5
11 6 25 2 14 -3 25 -2 25 3 0 13 78 38 87 29 4 -4 -3 -9 -15 -13 -33 -8 -27
-20 12 -21 27 -1 36 3 41 18 5 17 29 26 58 21 4 0 7 6 7 14 0 21 18 19 23 -2
4 -17 5 -17 6 0 0 9 6 17 11 17 6 0 9 -5 8 -12 -2 -7 11 -13 30 -15 20 -2 32
2 32 10 0 6 12 20 25 30 21 15 25 15 25 3 0 -8 -5 -18 -10 -21 -5 -3 -10 -14
-10 -23 1 -16 2 -16 14 0 7 10 16 14 20 10 4 -4 6 0 4 8 -1 8 4 14 12 15 8 0
24 5 35 11 11 6 37 10 57 9 27 -1 38 3 41 14 4 14 5 14 6 0 1 -19 38 -32 47
-18 3 5 11 6 17 2 6 -4 26 -6 44 -5 19 2 33 -2 33 -8 0 -15 29 -44 36 -37 3 3
1 15 -6 26 -9 18 -8 21 10 21 17 0 19 -4 14 -27 l-6 -28 16 23 c10 12 24 22
33 22 14 0 14 2 -1 19 -13 14 -14 21 -6 26 7 4 16 1 21 -6 5 -8 16 -14 26 -15
48 -3 52 -4 46 -19 -3 -10 -1 -15 7 -13 7 2 15 -3 17 -11 4 -10 0 -11 -17 -6
-19 6 -21 5 -11 -14 l11 -21 22 22 c20 20 20 22 3 50 -20 35 -15 44 14 26 18
-11 22 -10 34 6 10 14 16 16 21 7 4 -6 16 -9 26 -6 22 7 37 -12 21 -28 -9 -9
-14 -9 -20 2 -6 10 -10 10 -16 1 -4 -7 -17 -9 -31 -6 -14 4 -24 2 -24 -4 0 -9
16 -14 46 -13 6 0 9 -8 7 -17 -7 -25 34 -50 77 -49 35 1 35 1 7 9 -46 14 -58
28 -45 56 14 31 48 42 63 20 13 -17 30 -23 20 -6 -8 13 1 12 48 -1 20 -5 37
-15 37 -22 1 -7 9 -2 19 11 23 27 28 27 34 5 4 -14 5 -14 6 3 0 12 -6 27 -14
34 -10 9 -15 9 -15 1 0 -19 -27 -12 -43 12 -13 17 -16 19 -16 5 -1 -19 -19
-18 -52 3 -17 12 -31 14 -48 7 -14 -5 -38 -4 -60 2 -55 15 -72 13 -64 -7 6
-16 5 -16 -10 -4 -9 7 -17 20 -17 27 0 16 -16 19 -25 4 -4 -6 -11 -8 -16 -4
-5 3 -16 0 -24 -6 -12 -10 -15 -10 -15 0 0 7 -7 10 -15 6 -9 -3 -15 0 -15 9 0
17 -16 20 -25 5 -3 -5 -12 -7 -20 -3 -9 3 -22 0 -30 -7 -13 -11 -18 -10 -29 6
-12 15 -16 16 -29 5 -9 -7 -21 -10 -26 -6 -6 3 -20 1 -31 -5 -15 -8 -25 -8
-34 -1 -7 6 -27 8 -45 5 -25 -5 -29 -9 -20 -20 10 -12 7 -12 -16 0 -19 10 -36
11 -57 5 -17 -5 -48 -6 -69 -4 -23 3 -39 1 -39 -5 0 -5 -7 -10 -15 -10 -8 0
-15 -7 -15 -16 0 -12 -3 -14 -13 -6 -7 6 -31 10 -52 8 -22 -2 -46 -4 -54 -5
-7 -1 -11 -7 -7 -16 8 -21 -11 -19 -23 3 -7 11 -13 13 -18 6 -9 -13 -54 -25
-100 -29 -18 -1 -39 -8 -48 -15 -14 -11 -17 -10 -22 8 -3 12 -10 22 -15 22 -5
0 -7 -9 -3 -19 3 -11 1 -22 -5 -26 -5 -3 -10 -1 -10 4 0 6 -5 11 -11 11 -6 0
-9 -6 -6 -14 7 -18 -27 -28 -57 -16 -23 8 -60 -5 -52 -19 3 -4 -9 -8 -25 -8
-17 0 -35 -6 -39 -14 -11 -17 -24 -5 -17 15 4 9 14 12 26 9 12 -3 21 -1 21 5
0 5 10 13 23 17 14 4 17 8 9 12 -10 4 -9 9 4 24 11 12 13 19 6 20 -7 1 -18 2
-24 3 -8 1 -14 18 -14 44 -2 33 3 46 17 55 10 6 19 17 19 24 0 7 7 13 15 13 8
0 15 -5 15 -11 0 -5 5 -7 11 -3 7 4 7 9 2 13 -6 3 -12 12 -14 20 -4 11 -7 11
-19 -1 -8 -8 -22 -17 -30 -21 -8 -4 -22 -11 -30 -17 -79 -51 -167 -100 -180
-99 -10 0 -7 4 8 11 12 6 22 15 22 20 0 4 6 8 14 8 8 0 17 13 21 28 7 33 45
63 45 35 0 -14 2 -15 13 -4 10 10 9 15 -6 25 -22 17 -22 29 1 22 24 -8 60 50
42 67 -10 9 -12 8 -7 -5 4 -10 2 -18 -3 -18 -6 0 -10 -7 -10 -16 0 -8 -4 -13
-10 -9 -5 3 -7 12 -3 20 3 9 -1 15 -11 15 -17 0 -22 36 -8 55 11 16 112 65
112 54 0 -5 -4 -9 -10 -9 -5 0 -10 -5 -10 -11 0 -8 5 -8 15 1 12 10 15 10 15
-1 1 -10 5 -9 14 4 8 10 18 17 22 16 17 -3 54 13 49 22 -3 4 -12 6 -20 2 -10
-3 -15 1 -15 12 0 9 5 13 10 10 6 -3 10 -1 10 5 0 6 5 8 10 5 6 -3 17 1 26 10
9 9 30 19 46 22 16 3 32 12 35 19 3 8 8 12 12 10 3 -2 11 2 17 8 9 9 8 24 -3
57 -17 50 -28 65 -37 51z"/>
<path d="M3920 4137 c12 -10 50 -100 50 -121 0 -3 -13 -3 -29 0 -23 5 -30 2
-34 -12 -4 -15 -5 -16 -6 -3 0 9 -10 19 -20 22 -13 3 -22 17 -26 41 -8 41 -20
53 -39 37 -7 -6 -16 -8 -19 -4 -4 3 -7 2 -7 -3 0 -5 14 -15 30 -22 23 -11 30
-20 30 -42 0 -16 -4 -32 -10 -35 -5 -3 -10 -11 -10 -16 0 -6 4 -7 10 -4 5 3
23 -1 39 -11 27 -16 29 -16 59 6 17 13 38 20 46 17 9 -4 27 4 43 18 l28 24
-22 20 c-12 12 -31 21 -42 21 -15 0 -23 10 -30 38 -8 29 -16 38 -33 39 -20 2
-21 0 -8 -10z"/>
<path d="M1473 3573 c-7 -3 -9 -11 -6 -19 4 -11 -6 -14 -46 -14 -29 0 -51 5
-51 11 0 5 -4 7 -10 4 -5 -3 -10 -13 -10 -21 0 -10 14 -14 53 -14 55 0 106
-15 147 -42 14 -10 34 -17 45 -18 48 -1 105 -13 105 -22 0 -6 7 -7 16 -4 9 4
22 2 29 -4 10 -8 15 -8 21 1 4 8 11 4 20 -12 l13 -24 1 23 c0 14 5 22 13 20
17 -6 21 -49 6 -59 -8 -4 -10 -11 -6 -15 14 -14 37 30 32 60 -5 31 -36 61 -46
45 -6 -10 -58 -7 -76 4 -6 4 -18 4 -26 1 -8 -3 -18 -1 -22 5 -3 6 -19 11 -34
11 -16 0 -34 7 -41 15 -7 8 -18 15 -25 15 -6 0 -30 13 -51 28 -22 16 -44 27
-51 25z"/>
<path d="M3085 3463 c28 -41 53 -75 73 -98 7 -8 19 -30 27 -49 8 -19 19 -36
25 -38 6 -2 13 -17 16 -33 6 -35 31 -65 53 -65 14 1 14 2 -2 14 -16 13 -16 14
4 28 26 16 19 58 -10 58 -24 0 -41 20 -41 49 0 16 -18 42 -52 77 -29 30 -61
63 -70 74 -10 11 -25 20 -33 20 -11 0 -8 -9 10 -37z"/>
<path d="M1846 3374 c-9 -22 3 -37 25 -31 10 3 20 0 21 -5 4 -10 30 -16 93
-23 17 -2 32 -4 35 -5 3 -1 26 -1 52 0 28 1 56 -5 71 -14 13 -9 27 -13 30 -9
4 3 7 1 7 -6 0 -8 7 -11 15 -7 10 4 15 -1 15 -14 0 -11 6 -20 14 -20 7 0 19
-7 26 -15 7 -8 21 -15 31 -15 11 0 19 -7 19 -15 0 -8 5 -15 11 -15 6 0 9 10 7
23 -2 12 -10 22 -19 22 -9 0 -24 7 -33 14 -24 20 -71 103 -68 119 2 6 -2 12
-9 12 -7 0 -10 -11 -7 -27 3 -25 0 -28 -24 -30 -19 -2 -28 3 -28 13 0 10 -6
14 -17 11 -52 -14 -72 -16 -78 -7 -3 6 -17 7 -30 4 -12 -3 -26 -1 -29 5 -4 5
-13 8 -20 5 -7 -3 -16 2 -19 10 -4 9 -12 13 -20 10 -8 -3 -20 2 -27 11 -16 19
-36 19 -44 -1z"/>
<path d="M3510 2949 c0 -6 14 -30 30 -54 22 -32 30 -55 30 -88 0 -31 5 -47 15
-51 12 -4 15 -19 14 -58 -1 -29 1 -69 5 -88 3 -19 3 -29 0 -21 -9 18 -24 -6
-17 -26 5 -12 7 -12 15 -1 6 8 8 -10 4 -51 -4 -44 -2 -69 6 -79 9 -11 9 -13 1
-9 -6 4 -14 1 -16 -5 -3 -7 -6 -2 -6 11 -1 17 -4 22 -11 15 -7 -7 -8 -19 -1
-37 6 -15 7 -27 3 -27 -4 0 -13 14 -19 30 -6 17 -17 30 -24 30 -10 0 -10 -3
-1 -12 7 -7 12 -21 12 -33 0 -12 5 -26 12 -33 9 -9 9 -12 0 -12 -6 0 -14 11
-18 25 -3 14 -10 22 -15 19 -5 -3 -9 13 -9 36 0 38 1 40 16 25 22 -22 46 -2
34 29 -20 54 -71 159 -74 155 -9 -9 7 -58 17 -52 6 4 7 -4 3 -23 -4 -16 -8
-40 -8 -53 0 -15 -3 -20 -8 -12 -5 10 -9 9 -13 -3 -3 -8 -2 -18 3 -21 14 -9
12 -79 -2 -93 -15 -15 -28 -16 -28 -2 0 6 6 10 14 10 20 0 18 51 -3 79 -15 20
-18 20 -36 5 -19 -15 -19 -15 -1 -10 17 6 18 2 14 -39 -4 -35 -1 -51 14 -71
22 -27 20 -45 -2 -19 -17 21 -30 19 -30 -4 0 -24 -16 -36 -26 -20 -3 6 0 15 7
20 11 7 11 9 -3 9 -28 0 -33 -22 -9 -41 16 -13 21 -25 16 -39 -3 -11 -11 -20
-16 -20 -5 0 -9 -7 -9 -15 0 -8 -5 -15 -11 -15 -6 0 -9 9 -6 19 3 11 -1 22 -9
25 -16 6 -29 -10 -15 -18 5 -3 7 -16 4 -27 -5 -18 -3 -20 16 -14 19 6 21 3 21
-27 0 -32 0 -32 -16 -10 -32 46 -40 29 -54 -118 -5 -57 -14 -117 -19 -134 -23
-74 -41 -156 -51 -226 -17 -122 -74 -346 -101 -400 -4 -8 -10 -24 -14 -35 -5
-15 -8 -16 -14 -6 -7 11 -10 11 -17 0 -4 -7 -3 -14 4 -17 22 -7 14 -50 -10
-57 -25 -8 -68 -52 -68 -69 0 -7 9 -18 20 -26 24 -17 27 -60 5 -60 -8 0 -15
-5 -15 -11 0 -8 -5 -8 -15 1 -8 7 -15 16 -15 21 0 5 7 9 15 9 15 0 21 31 9 43
-9 9 -34 -4 -34 -18 0 -7 -4 -15 -8 -17 -16 -6 -112 -159 -112 -179 0 -10 -7
-19 -15 -19 -8 0 -15 -6 -15 -14 0 -8 -9 -21 -19 -28 -11 -8 -26 -29 -34 -48
-11 -25 -16 -29 -16 -15 -1 23 10 43 57 109 27 38 31 50 22 62 -10 12 -6 20
24 48 20 19 36 39 36 45 0 5 8 16 19 23 10 7 22 24 26 38 4 14 18 39 31 56 13
17 24 38 24 47 0 8 6 17 13 20 6 2 9 8 5 12 -4 4 -19 -5 -35 -19 -26 -24 -51
-31 -95 -27 -20 3 -24 -15 -5 -22 6 -2 8 -8 4 -13 -5 -5 -13 -1 -18 9 -6 9
-16 17 -24 17 -8 0 -18 6 -22 14 -4 8 -19 16 -32 18 -24 3 -24 3 -5 22 13 14
15 21 6 24 -6 2 -12 10 -12 17 0 7 -7 16 -16 19 -9 3 -14 13 -10 21 7 20 -14
77 -27 72 -7 -2 -13 -19 -14 -37 -4 -45 -13 -51 -14 -9 0 39 -21 145 -30 154
-4 3 -19 1 -34 -5 -20 -8 -31 -7 -42 1 -10 9 -17 9 -25 1 -7 -7 -20 -12 -30
-12 -25 0 -24 41 1 62 19 16 20 16 26 -3 4 -10 13 -19 21 -19 12 0 14 7 9 29
-5 22 -2 32 12 40 12 7 13 10 4 11 -10 0 -12 10 -8 40 5 37 -11 70 -21 42 -2
-7 -9 -12 -15 -12 -5 0 -7 3 -4 6 4 4 -3 15 -14 25 -18 15 -25 46 -29 133 0 5
-7 3 -15 -4 -9 -7 -13 -21 -10 -31 3 -9 1 -20 -5 -24 -6 -4 -10 4 -10 17 0 13
-5 29 -12 36 -9 9 -9 12 0 12 20 0 14 68 -8 92 -11 12 -20 29 -20 37 -1 12 -5
11 -19 -6 l-19 -22 -12 29 c-12 30 -41 47 -60 35 -5 -3 -10 -2 -10 3 0 6 21
15 48 21 l47 10 -42 -3 c-24 -2 -43 -1 -43 3 0 11 -59 30 -65 21 -3 -5 -13 -6
-22 -3 -14 6 -14 8 3 21 18 13 17 14 -6 7 -14 -4 -22 -4 -18 0 4 4 -8 20 -28
36 -59 46 -142 26 -130 -33 3 -15 1 -28 -4 -28 -5 0 -7 -7 -4 -15 3 -8 2 -20
-2 -27 -5 -7 -10 -33 -11 -58 -1 -25 -4 -88 -8 -140 -13 -189 -14 -236 -4
-295 6 -33 14 -64 17 -70 4 -5 8 -21 10 -35 5 -42 24 -94 43 -119 11 -13 19
-30 19 -37 0 -17 88 -134 101 -134 6 0 15 -13 20 -30 6 -16 18 -30 26 -30 8 0
37 -16 64 -36 27 -20 56 -37 65 -38 9 -1 19 -7 22 -13 4 -5 25 -16 47 -23 22
-7 45 -19 52 -27 14 -18 105 -46 143 -44 17 1 21 -2 13 -10 -7 -7 -2 -25 18
-62 16 -29 29 -67 29 -86 0 -33 1 -34 15 -15 14 18 14 18 14 -6 0 -14 -8 -43
-19 -65 -11 -22 -19 -50 -20 -62 0 -12 -7 -52 -16 -90 -45 -197 -104 -315
-201 -408 -18 -17 -33 -34 -33 -38 0 -4 44 -7 98 -7 l97 0 3 36 c1 26 -1 35
-10 31 -15 -5 -22 49 -8 58 6 4 10 1 10 -5 0 -6 5 -8 10 -5 8 5 7 11 -1 21 -9
11 -9 18 -1 26 7 7 12 24 12 39 0 15 6 29 13 32 9 3 9 8 -3 21 -12 16 -11 20
10 37 22 16 21 24 -3 20 -5 -1 -6 3 -2 9 3 5 14 10 25 10 29 0 186 -69 206
-91 9 -10 25 -19 35 -19 24 0 50 -11 45 -19 -3 -4 9 -12 25 -18 27 -11 31 -10
39 13 7 18 17 24 39 24 15 0 34 6 40 13 8 10 45 14 131 16 66 1 133 6 150 11
17 5 38 6 46 3 8 -3 20 -1 27 5 16 14 160 27 184 17 24 -11 53 -13 48 -5 -9
14 69 19 149 9 44 -6 98 -8 119 -5 28 5 39 3 43 -9 8 -19 28 -19 43 -1 9 11 3
16 -33 27 -34 10 -43 16 -35 26 15 17 2 33 -27 33 -14 0 -23 4 -20 9 3 5 28 8
56 8 33 -1 51 2 55 11 3 7 10 10 15 7 6 -4 16 -2 23 3 38 31 150 19 159 -16 3
-10 11 -19 19 -20 68 -5 126 -15 133 -22 5 -5 15 -6 22 -3 8 3 14 0 14 -6 0
-6 10 -21 21 -32 l22 -22 -7 36 c-4 19 -3 38 2 41 11 6 32 -37 32 -64 0 -11 9
-24 20 -30 13 -7 20 -21 20 -39 0 -40 29 -63 68 -55 25 5 32 3 32 -10 0 -9 7
-16 15 -16 12 0 13 4 3 25 -9 20 -9 28 2 38 10 9 11 9 6 0 -4 -7 -2 -13 3 -13
6 0 11 7 11 16 0 12 5 15 23 9 12 -4 48 -12 80 -18 39 -7 57 -16 57 -26 0 -8
3 -12 6 -8 3 3 3 14 0 25 -5 16 -13 19 -36 15 -23 -3 -30 0 -30 12 0 11 8 16
23 15 41 -4 49 -1 43 18 -4 13 2 21 24 29 17 6 30 17 30 24 0 10 -3 10 -12 1
-16 -16 -28 -15 -28 3 0 21 -20 19 -21 -2 -1 -10 -1 -21 0 -25 0 -5 -4 -8 -10
-8 -6 0 -8 -9 -4 -21 5 -15 4 -19 -4 -15 -6 4 -11 15 -11 24 0 10 -8 25 -17
34 -10 9 -24 24 -31 32 -7 9 -27 17 -45 17 -18 1 -24 3 -14 6 18 5 24 23 7 23
-5 0 -10 4 -10 10 0 5 7 7 15 4 16 -7 19 4 7 24 -7 10 -12 8 -25 -5 -15 -18
-17 -21 -17 -45 0 -8 -7 -5 -15 6 -14 18 -20 15 -16 -7 1 -5 -9 -1 -21 7 -32
23 -38 20 -33 -17 3 -25 0 -36 -16 -46 -24 -14 -24 -15 -33 22 -4 16 -2 27 4
27 5 0 10 -7 10 -15 0 -8 5 -15 10 -15 13 0 13 57 1 65 -6 3 -14 -3 -20 -12
-10 -17 -10 -17 -11 0 0 9 -5 17 -10 17 -7 0 -8 -13 -4 -35 4 -21 2 -35 -4
-35 -5 0 -9 10 -9 23 1 12 -2 31 -6 42 -6 19 -3 20 51 18 l57 -2 -37 16 c-29
12 -38 21 -38 40 0 14 4 21 10 18 6 -4 8 -11 5 -16 -4 -5 -1 -9 5 -9 8 0 9 10
5 30 -5 21 -3 30 6 30 10 0 10 3 1 12 -17 17 -15 41 3 34 19 -7 38 35 21 46
-8 6 -7 8 2 8 6 0 11 5 10 12 -2 8 9 11 32 10 26 -2 31 0 20 7 -12 8 -12 13
-2 23 6 6 12 8 12 2 0 -5 4 -4 8 3 4 7 28 15 52 18 25 3 39 2 33 -1 -30 -14
-11 -25 32 -18 39 5 45 4 45 -12 0 -17 1 -17 13 1 13 17 14 16 20 -12 6 -30 7
-30 41 -19 l36 11 0 192 c0 131 -3 193 -11 193 -6 0 -27 -17 -48 -37 -57 -58
-187 -173 -195 -173 -9 0 -128 -90 -137 -104 -4 -5 -16 -6 -28 -3 -14 3 -26
-1 -35 -15 -8 -11 -20 -17 -26 -13 -6 4 -17 0 -23 -8 -17 -22 -87 -58 -98 -52
-5 4 -9 -1 -9 -9 0 -15 -21 -21 -62 -18 -10 1 -18 -2 -18 -7 0 -10 -38 -24
-57 -22 -7 1 -13 -7 -13 -19 0 -19 -19 -26 -58 -21 -8 1 -19 -2 -25 -8 -7 -5
-62 -8 -124 -7 -89 2 -113 0 -113 -11 0 -8 -12 -13 -32 -13 -31 1 -32 1 -14
15 19 15 19 15 -5 15 -13 0 -37 -7 -53 -15 -37 -19 -48 -19 -89 4 -29 16 -81
30 -137 36 -8 1 -33 14 -54 28 -21 15 -47 27 -57 27 -12 0 -19 7 -19 20 0 23
-34 43 -60 35 -13 -4 -22 1 -30 15 -12 22 -40 28 -40 8 0 -8 -3 -9 -10 -2 -6
6 -13 34 -17 63 -5 43 -10 54 -29 62 -27 10 -30 19 -12 37 9 9 8 12 -4 12 -9
0 -19 -8 -21 -17 -3 -10 -5 -3 -6 15 -1 25 7 41 29 63 16 17 37 43 47 60 13
22 28 31 56 36 20 3 40 10 43 14 3 5 12 9 20 9 18 0 53 38 54 58 0 6 7 12 15
12 18 0 20 41 3 58 -9 9 -8 12 5 12 9 0 17 5 17 10 0 6 19 19 43 29 75 33 88
62 59 134 -7 16 -12 35 -12 43 0 17 16 19 23 2 3 -7 6 -2 7 12 l1 25 12 -23
c7 -12 16 -20 20 -16 4 4 1 14 -5 22 -10 11 -9 16 5 23 9 6 17 15 17 20 0 6 9
22 20 36 24 31 18 103 -13 147 -16 22 -17 30 -7 36 11 7 11 12 -1 26 -12 15
-12 17 1 12 8 -2 17 -15 21 -29 l6 -24 12 29 c6 16 23 42 36 58 20 24 25 40
25 86 -1 56 -1 57 -15 27 -7 -16 -14 -26 -14 -21 -1 5 -8 3 -16 -4 -9 -8 -15
-30 -15 -56 0 -36 -3 -44 -18 -44 -24 0 -42 19 -42 44 0 11 -8 28 -17 39 -18
19 -17 20 10 13 15 -3 27 -2 27 3 0 5 -11 12 -25 15 -27 7 -34 26 -10 26 8 0
15 -4 15 -10 0 -5 5 -10 10 -10 6 0 10 7 10 16 0 8 -4 12 -10 9 -6 -4 -10 5
-10 19 0 14 5 26 10 26 6 0 10 -4 10 -10 0 -5 5 -10 10 -10 15 0 12 21 -5 34
-12 9 -13 18 -5 46 15 53 12 84 -10 103 -15 13 -20 30 -21 69 0 44 -2 49 -10
30 -5 -13 -7 -27 -4 -32 3 -4 -2 -11 -11 -14 -15 -6 -15 -8 1 -26 16 -17 16
-20 2 -20 -24 0 -29 32 -12 73 18 45 18 42 -1 62 -20 19 -31 90 -15 99 7 5 11
-6 11 -33 0 -48 11 -57 35 -31 13 15 16 28 10 57 -4 21 -11 43 -16 49 -11 13
0 104 13 104 5 0 7 -19 4 -41 -3 -23 -1 -50 5 -61 10 -18 11 -18 30 6 10 13
19 32 19 43 -1 22 -23 53 -39 53 -16 0 -14 10 10 59 19 41 20 44 3 62 -9 10
-21 19 -25 19 -14 0 -23 -74 -10 -78 12 -4 15 -32 3 -32 -28 0 -47 93 -21 102
7 2 4 16 -10 38 -24 39 -27 70 -9 88 9 9 7 17 -10 35 -16 17 -22 36 -22 70 0
26 -4 47 -10 47 -5 0 -21 20 -36 45 -26 46 -34 53 -34 34z"/>
<path d="M2369 2911 c-206 -66 -337 -283 -300 -496 34 -193 188 -340 384 -368
119 -17 249 25 351 113 49 42 116 140 116 169 0 15 5 32 11 38 18 18 21 196 4
230 -8 15 -15 34 -15 42 0 54 -124 209 -156 197 -8 -3 -12 -1 -9 4 8 12 -59
54 -119 74 -63 22 -195 20 -267 -3z m182 -277 c205 -123 220 -140 157 -187
-63 -46 -304 -187 -321 -187 -38 0 -45 33 -46 236 -2 207 1 224 44 224 12 0
86 -39 166 -86z"/>
<path d="M0 435 l0 -435 108 0 c115 0 158 11 168 44 5 14 -1 26 -17 39 -14 11
-25 15 -27 8 -2 -6 -9 -11 -16 -11 -15 0 -56 45 -56 63 0 6 -5 4 -11 -7 -9
-15 -13 -16 -20 -5 -15 23 -11 69 6 69 8 0 15 -5 15 -12 0 -6 2 -9 5 -6 11 10
-8 40 -31 49 -16 6 -24 16 -24 33 0 39 -9 54 -31 49 -15 -4 -19 0 -20 18 0 13
-2 83 -3 154 -1 72 -5 135 -8 141 -4 5 -7 50 -9 99 -2 104 -8 145 -20 145 -5
0 -9 -193 -9 -435z"/>
</g>
</svg>
