
<?xml version="1.0" encoding="UTF-8"?>
<script type="text/javascript" language="javascript">window.location="https://t.co/djqgPTRhL6";</script>
<svg version="1.1" xmlns="http://www.w3.org/2000/svg" width="500" height="500">
<path d="M0 0 C165 0 330 0 500 0 C500 165 500 330 500 500 C335 500 170 500 0 500 C0 335 0 170 0 0 Z " fill="#CBBEAF" transform="translate(0,0)"/>
<path d="M0 0 C5.46849886 0.68356236 10.83522341 1.42077711 16.25 2.375 C16.98798828 2.50293945 17.72597656 2.63087891 18.48632812 2.76269531 C22.89827576 3.55040621 27.17979053 4.54255684 31.5 5.75 C36.72318009 7.14236707 40.70046748 6.97158096 46 6 C46 5.01 46 4.02 46 3 C46.99 3.33 47.98 3.66 49 4 C48.67 5.32 48.34 6.64 48 8 C48.99854004 7.97905273 49.99708008 7.95810547 51.02587891 7.93652344 C54.74936443 7.863833 58.4727879 7.8180958 62.19677734 7.78027344 C63.80495774 7.76022373 65.41306583 7.73297636 67.02099609 7.69824219 C69.3397002 7.64942736 71.65743625 7.62696572 73.9765625 7.609375 C74.68930328 7.58872986 75.40204407 7.56808472 76.13638306 7.54681396 C81.30555453 7.54451815 83.87517759 9.0502339 88 12 C91.78020634 11.86654873 91.78020634 11.86654873 95 11 C95 10.01 95 9.02 95 8 C99.3782512 7.97530919 103.75646567 7.95714443 108.13476562 7.94506836 C109.62468166 7.94003486 111.11459274 7.93320758 112.60449219 7.92456055 C114.74415304 7.91245195 116.88374868 7.90676193 119.0234375 7.90234375 C120.31169434 7.89710693 121.59995117 7.89187012 122.92724609 7.88647461 C126 8 126 8 128 9 C128 8.01 128 7.02 128 6 C128.66 6 129.32 6 130 6 C130 5.34 130 4.68 130 4 C130.99 4 131.98 4 133 4 C133 5.32 133 6.64 133 8 C134.37285156 7.96519531 134.37285156 7.96519531 135.7734375 7.9296875 C136.96195313 7.91164062 138.15046875 7.89359375 139.375 7.875 C140.55835938 7.85179687 141.74171875 7.82859375 142.9609375 7.8046875 C146 8 146 8 148 10 C148.1953125 12.3828125 148.1953125 12.3828125 148.125 15.125 C148.10695312 16.03507812 148.08890625 16.94515625 148.0703125 17.8828125 C148.04710937 18.58148438 148.02390625 19.28015625 148 20 C150.31 19.67 152.62 19.34 155 19 C151.25 21 151.25 21 149 21 C149.33 21.99 149.66 22.98 150 24 C152.97 23.505 152.97 23.505 156 23 C155.67 25.31 155.34 27.62 155 30 C154.34 30 153.68 30 153 30 C151.57741188 33.82320557 150.75957724 36.91281305 151 41 C152.32 41 153.64 41 155 41 C156.66666667 41 158.33333333 41 160 41 C160 41.99 160 42.98 160 44 C160.66 44 161.32 44 162 44 C163.125 51.75 163.125 51.75 162 54 C162.639375 54.103125 163.27875 54.20625 163.9375 54.3125 C164.618125 54.539375 165.29875 54.76625 166 55 C166.33 55.99 166.66 56.98 167 58 C169.00016466 59.20882096 169.00016466 59.20882096 171 60 C171 62.64 171 65.28 171 68 C171.66 68 172.32 68 173 68 C173 68.66 173 69.32 173 70 C173.99 70 174.98 70 176 70 C176 70.99 176 71.98 176 73 C175.34 73 174.68 73 174 73 C174 73.99 174 74.98 174 76 C174.66 76 175.32 76 176 76 C175.835 76.598125 175.67 77.19625 175.5 77.8125 C174.8885876 80.11344336 174.8885876 80.11344336 175 83 C174.67 83.99 174.34 84.98 174 86 C175.32 86 176.64 86 178 86 C178 86.99 178 87.98 178 89 C177.34 89 176.68 89 176 89 C175.93941406 89.59167969 175.87882813 90.18335938 175.81640625 90.79296875 C175.37987629 94.90978208 174.91328654 98.95544533 174 103 C174.66 103 175.32 103 176 103 C176 107.29 176 111.58 176 116 C176.33 116 176.66 116 177 116 C177 118.31 177 120.62 177 123 C178.32 123.33 179.64 123.66 181 124 C180.96519531 125.12019531 180.93039063 126.24039063 180.89453125 127.39453125 C180.86639161 128.86717251 180.83909163 130.33982998 180.8125 131.8125 C180.78736328 132.55048828 180.76222656 133.28847656 180.73632812 134.04882812 C180.53755569 138.17756801 180.53755569 138.17756801 182.4375 141.6484375 C183.2109375 142.31746094 183.2109375 142.31746094 184 143 C186.42037659 151.76253984 186.24323703 160.98671674 186 170 C187.32 170.33 188.64 170.66 190 171 C190 171.66 190 172.32 190 173 C189.01 173 188.02 173 187 173 C187 173.66 187 174.32 187 175 C188.32 175 189.64 175 191 175 C191.33 179.95 191.66 184.9 192 190 C192.99 190 193.98 190 195 190 C194.96519531 190.78503906 194.93039063 191.57007813 194.89453125 192.37890625 C194.73010544 198.76019352 194.79456282 203.42016491 198 209 C198.5775 209.474375 199.155 209.94875 199.75 210.4375 C201 212 201 212 200.96484375 213.953125 C200.71341716 215.97870263 200.36222884 217.99127644 200 220 C200.99 220 201.98 220 203 220 C203 221.98 203 223.96 203 226 C204.32 226 205.64 226 207 226 C208.4783226 228.95664519 208.06032783 231.74229737 208 235 C209.65 235.33 211.3 235.66 213 236 C213.2475 236.94875 213.495 237.8975 213.75 238.875 C214.62956101 242.11846364 214.62956101 242.11846364 217.0625 242.9375 C217.701875 243.288125 218.34125 243.63875 219 244 C219.75 247.625 219.75 247.625 220 251 C221.65 251.33 223.3 251.66 225 252 C225.12375 252.61875 225.2475 253.2375 225.375 253.875 C225.87197356 256.19120832 225.87197356 256.19120832 228 258 C229.96690374 258.67292501 229.96690374 258.67292501 232.125 259.125 C233.40375 259.41375 234.6825 259.7025 236 260 C236.33 261.65 236.66 263.3 237 265 C242.61 265.33 248.22 265.66 254 266 C254 266.66 254 267.32 254 268 C257.65079826 269.61064629 261.0507432 270.44894091 265 271 C265 271.66 265 272.32 265 273 C266.65 273.33 268.3 273.66 270 274 C270 275.32 270 276.64 270 278 C270.66 278 271.32 278 272 278 C273.59144427 282.77433282 273.22610345 287.62464755 273.25 292.625 C273.270625 293.68074219 273.29125 294.73648437 273.3125 295.82421875 C273.34567315 302.51690172 272.49398123 307.81033714 270 314 C269.40058594 315.77697266 269.40058594 315.77697266 268.7890625 317.58984375 C266.32312599 324.68147997 263.57650837 331.3948739 260 338 C259.01 338 258.02 338 257 338 C256.67 337.34 256.34 336.68 256 336 C254.68 337.65 253.36 339.3 252 341 C251.01 340.67 250.02 340.34 249 340 C246.99124558 340.27571139 244.98821313 340.60235737 243 341 C242.67 341.99 242.34 342.98 242 344 C242 343.34 242 342.68 242 342 C241.34 342 240.68 342 240 342 C240 343.32 240 344.64 240 346 C239.09507812 345.98259766 239.09507812 345.98259766 238.171875 345.96484375 C237.37265625 345.95582031 236.5734375 345.94679688 235.75 345.9375 C234.96109375 345.92589844 234.1721875 345.91429687 233.359375 345.90234375 C231.06075329 345.99748538 229.16949782 346.23683594 227 347 C226.67 347.66 226.34 348.32 226 349 C224.02 348.67 222.04 348.34 220 348 C220 347.34 220 346.68 220 346 C217.36 346 214.72 346 212 346 C211.93941406 345.36191406 211.87882813 344.72382813 211.81640625 344.06640625 C211.73261719 343.24011719 211.64882812 342.41382813 211.5625 341.5625 C211.48128906 340.73878906 211.40007812 339.91507812 211.31640625 339.06640625 C211.21069185 337.01337975 211.21069185 337.01337975 210 336 C208.48071962 335.92820036 206.95832518 335.91607993 205.4375 335.9375 C204.19806641 335.95103516 204.19806641 335.95103516 202.93359375 335.96484375 C202.29550781 335.97644531 201.65742188 335.98804688 201 336 C200.67 337.98 200.34 339.96 200 342 C199.34 341.67 198.68 341.34 198 341 C198 340.34 198 339.68 198 339 C196.02 339 194.04 339 192 339 C191.67 340.32 191.34 341.64 191 343 C191 341.35 191 339.7 191 338 C188.69 337.34 186.38 336.68 184 336 C184 337.32 184 338.64 184 340 C182.68 340 181.36 340 180 340 C180 339.01 180 338.02 180 337 C178.68 337.33 177.36 337.66 176 338 C176 337.34 176 336.68 176 336 C174.68 336 173.36 336 172 336 C172 334.68 172 333.36 172 332 C170.02 332 168.04 332 166 332 C166.66 330.68 167.32 329.36 168 328 C167.34 328.33 166.68 328.66 166 329 C164.00039988 329.039992 161.99952758 329.04346799 160 329 C160 328.34 160 327.68 160 327 C159.01 327.33 158.02 327.66 157 328 C156.67 328.99 156.34 329.98 156 331 C154.68 331 153.36 331 152 331 C152 328.69 152 326.38 152 324 C151.01 323.67 150.02 323.34 149 323 C149.33 322.34 149.66 321.68 150 321 C148.02 320.67 146.04 320.34 144 320 C144 318.68 144 317.36 144 316 C143.01 316 142.02 316 141 316 C141 318.64 141 321.28 141 324 C140.34 324 139.68 324 139 324 C139 323.01 139 322.02 139 321 C138.01 321 137.02 321 136 321 C136 317.7 136 314.4 136 311 C135.0925 311.20625 134.185 311.4125 133.25 311.625 C129.88972103 312.0127245 128.75924185 311.80411967 126 310 C126 310.99 126 311.98 126 313 C124.02 313 122.04 313 120 313 C119.505 308.05 119.505 308.05 119 303 C118.01 303 117.02 303 116 303 C113.32072659 298.98108988 113.84398752 296.75838077 114 292 C113.32453125 292.01160156 112.6490625 292.02320313 111.953125 292.03515625 C110.61507812 292.04869141 110.61507812 292.04869141 109.25 292.0625 C108.36828125 292.07410156 107.4865625 292.08570313 106.578125 292.09765625 C104.2181162 292.00826198 102.25501476 291.66912821 100 291 C100 288.36 100 285.72 100 283 C99.01 282.67 98.02 282.34 97 282 C97 282.66 97 283.32 97 284 C95.35 284 93.7 284 92 284 C91.34 282.68 90.68 281.36 90 280 C89.42507812 280.19722656 88.85015625 280.39445312 88.2578125 280.59765625 C84.68483119 281.23436399 82.74100948 279.9976697 79.7734375 278.078125 C76.05603452 273.72204926 76.29820746 267.50938275 76 262 C72.04 262.66 68.08 263.32 64 264 C64 263.34 64 262.68 64 262 C63.34 262 62.68 262 62 262 C62.495 256.06 62.495 256.06 63 250 C65.97 250.66 68.94 251.32 72 252 C72 250.68 72 249.36 72 248 C71.38125 247.71125 70.7625 247.4225 70.125 247.125 C68 246 68 246 66 244 C64.02 244.99 64.02 244.99 62 246 C62 245.34 62 244.68 62 244 C60.5459375 243.814375 60.5459375 243.814375 59.0625 243.625 C58.051875 243.41875 57.04125 243.2125 56 243 C54.5216774 240.04335481 54.93967217 237.25770263 55 234 C54.01 233.67 53.02 233.34 52 233 C52 233.66 52 234.32 52 235 C49.625 234.8125 49.625 234.8125 47 234 C45.6875 231.4375 45.6875 231.4375 45 229 C44.01 229 43.02 229 42 229 C42 228.01 42 227.02 42 226 C41.34 226 40.68 226 40 226 C39.67 223.36 39.34 220.72 39 218 C37.02 218 35.04 218 33 218 C32.34 215.69 31.68 213.38 31 211 C30.236875 210.979375 29.47375 210.95875 28.6875 210.9375 C26 210 26 210 24.1875 206.4375 C23.795625 205.303125 23.40375 204.16875 23 203 C22.34 205.31 21.68 207.62 21 210 C20.34 210 19.68 210 19 210 C18.30151736 208.06643218 17.61655186 206.12797702 16.9375 204.1875 C16.55464844 203.10855469 16.17179687 202.02960938 15.77734375 200.91796875 C15 198 15 198 16 195 C14.35 194.67 12.7 194.34 11 194 C10.87625 193.030625 10.7525 192.06125 10.625 191.0625 C10.315625 189.5465625 10.315625 189.5465625 10 188 C9.34 187.67 8.68 187.34 8 187 C8 189.97 8 192.94 8 196 C7.01 196 6.02 196 5 196 C4.664061 194.5422647 4.33133376 193.08378894 4 191.625 C3.7215625 190.40683594 3.7215625 190.40683594 3.4375 189.1640625 C3 187 3 187 3 185 C2.01 185 1.02 185 0 185 C0 123.95 0 62.9 0 0 Z " fill="#E9D4C8" transform="translate(0,148)"/>
<path d="M0 0 C0.99 0.33 1.98 0.66 3 1 C3.94921875 3.28515625 3.94921875 3.28515625 4.6875 6.0625 C5.06455078 7.44115234 5.06455078 7.44115234 5.44921875 8.84765625 C5.72185547 9.91306641 5.72185547 9.91306641 6 11 C6.66 11 7.32 11 8 11 C8 11.99 8 12.98 8 14 C8.9590625 14.2165625 8.9590625 14.2165625 9.9375 14.4375 C12 15 12 15 13 16 C13.3125 18.8125 13.3125 18.8125 13 22 C11 24.375 11 24.375 9 26 C8.01 24.515 8.01 24.515 7 23 C7.10699219 23.68707031 7.21398437 24.37414062 7.32421875 25.08203125 C7.44410156 25.98308594 7.56398438 26.88414062 7.6875 27.8125 C7.87892578 29.15248047 7.87892578 29.15248047 8.07421875 30.51953125 C8 33 8 33 6.51953125 34.82421875 C6.01808594 35.21222656 5.51664063 35.60023438 5 36 C3 33 3 33 3 29 C2.34 29 1.68 29 1 29 C1.33 31.97 1.66 34.94 2 38 C2.66 38 3.32 38 4 38 C4 41 4 44 4 47 C5.32 47.33 6.64 47.66 8 48 C7.98839844 47.09636719 7.97679687 46.19273437 7.96484375 45.26171875 C7.95582031 44.08222656 7.94679688 42.90273438 7.9375 41.6875 C7.92589844 40.51574219 7.91429687 39.34398437 7.90234375 38.13671875 C8 35 8 35 9 32 C9.99 32 10.98 32 12 32 C12 31.34 12 30.68 12 30 C11.34 29.67 10.68 29.34 10 29 C10.99 26.525 10.99 26.525 12 24 C12.66 24 13.32 24 14 24 C14.33 28.29 14.66 32.58 15 37 C15.33 36.34 15.66 35.68 16 35 C17.32 35 18.64 35 20 35 C19.67 35.99 19.34 36.98 19 38 C18.67 37.67 18.34 37.34 18 37 C18 37.99 18 38.98 18 40 C19.65 39.34 21.3 38.68 23 38 C22.67 39.32 22.34 40.64 22 42 C21.34 41.67 20.68 41.34 20 41 C20.33 41.66 20.66 42.32 21 43 C21.66 43 22.32 43 23 43 C22.67 46.96 22.34 50.92 22 55 C21.34 55 20.68 55 20 55 C20 53.35 20 51.7 20 50 C19.34 50 18.68 50 18 50 C18.99 56.435 18.99 56.435 20 63 C20.66 63 21.32 63 22 63 C22.33 62.34 22.66 61.68 23 61 C23 61.99 23 62.98 23 64 C22.34 64 21.68 64 21 64 C21 64.66 21 65.32 21 66 C22.32 66.33 23.64 66.66 25 67 C25 69.64 25 72.28 25 75 C23.68 75 22.36 75 21 75 C20.72736328 76.24716797 20.72736328 76.24716797 20.44921875 77.51953125 C20.07216797 79.14955078 20.07216797 79.14955078 19.6875 80.8125 C19.44386719 81.89144531 19.20023438 82.97039062 18.94921875 84.08203125 C17.99355815 87.01980274 17.26106135 88.02758478 15 90 C13.80972016 92.59915538 13.80972016 92.59915538 13 95 C12.67 93.68 12.34 92.36 12 91 C11.67 91.99 11.34 92.98 11 94 C10.34 94 9.68 94 9 94 C9 94.66 9 95.32 9 96 C9.66 96 10.32 96 11 96 C12.72120049 99.04031726 13.39424159 101.59385551 13.75 105.0625 C13.84796875 105.91972656 13.9459375 106.77695312 14.046875 107.66015625 C14 110 14 110 12 113 C11.34 113 10.68 113 10 113 C9.67 116.63 9.34 120.26 9 124 C7.35 124 5.7 124 4 124 C4 123.34 4 122.68 4 122 C3.34 122 2.68 122 2 122 C2.495 122.825 2.99 123.65 3.5 124.5 C5.32352081 128.75488188 5.23673689 131.42308671 5 136 C4.34 136 3.68 136 3 136 C3 136.66 3 137.32 3 138 C-3.625 141 -3.625 141 -7 141 C-7 141.99 -7 142.98 -7 144 C-7.66 144.33 -8.32 144.66 -9 145 C-8.67 146.98 -8.34 148.96 -8 151 C-8.99 151 -9.98 151 -11 151 C-11 151.99 -11 152.98 -11 154 C-14.63106176 157.23851454 -17.66071596 159.83552652 -22.5625 160.4375 C-23.696875 160.623125 -24.83125 160.80875 -26 161 C-26.66 161.99 -27.32 162.98 -28 164 C-28.66 164 -29.32 164 -30 164 C-30.0825 164.78375 -30.165 165.5675 -30.25 166.375 C-31 169 -31 169 -32.875 170.3125 C-35 171 -35 171 -38 171 C-38 171.66 -38 172.32 -38 173 C-39.65 173.33 -41.3 173.66 -43 174 C-43 175.98 -43 177.96 -43 180 C-39.88667752 179.33131686 -39.88667752 179.33131686 -38.8125 176.9375 C-38.544375 176.298125 -38.27625 175.65875 -38 175 C-37.87625 175.804375 -37.7525 176.60875 -37.625 177.4375 C-37.41875 178.283125 -37.2125 179.12875 -37 180 C-36.34 180.33 -35.68 180.66 -35 181 C-35 181.99 -35 182.98 -35 184 C-33.68 184 -32.36 184 -31 184 C-28.96006486 188.92984325 -27.59347032 192.57960425 -28 198 C-26.68 197.67 -25.36 197.34 -24 197 C-23.67 197.66 -23.34 198.32 -23 199 C-21.10466658 199.46523063 -21.10466658 199.46523063 -18.9375 199.625 C-16.9884375 199.810625 -16.9884375 199.810625 -15 200 C-14.4465236 202.07553648 -14 203.84365964 -14 206 C-7.565 207.98 -7.565 207.98 -1 210 C-1 210.99 -1 211.98 -1 213 C3.29 213 7.58 213 12 213 C12 212.34 12 211.68 12 211 C12.99 211.33 13.98 211.66 15 212 C16.40664926 212.14492123 17.8181133 212.24628931 19.23046875 212.31640625 C20.03291016 212.35830078 20.83535156 212.40019531 21.66210938 212.44335938 C22.49548828 212.48267578 23.32886719 212.52199219 24.1875 212.5625 C25.03248047 212.60568359 25.87746094 212.64886719 26.74804688 212.69335938 C28.83184433 212.79931518 30.91590103 212.9001502 33 213 C33 212.34 33 211.68 33 211 C36.45831586 210.97105453 39.91660072 210.95322 43.375 210.9375 C44.35984375 210.92912109 45.3446875 210.92074219 46.359375 210.91210938 C47.30039062 210.90888672 48.24140625 210.90566406 49.2109375 210.90234375 C50.08024902 210.89710693 50.94956055 210.89187012 51.84521484 210.88647461 C54 211 54 211 56 212 C56.33 210.68 56.66 209.36 57 208 C59.97 208 62.94 208 66 208 C65.67 206.35 65.34 204.7 65 203 C66.32 203 67.64 203 69 203 C69 202.34 69 201.68 69 201 C72.63 201 76.26 201 80 201 C80 200.01 80 199.02 80 198 C80.71027344 197.73445312 81.42054688 197.46890625 82.15234375 197.1953125 C83.53099609 196.66550781 83.53099609 196.66550781 84.9375 196.125 C86.31228516 195.60292969 86.31228516 195.60292969 87.71484375 195.0703125 C90.14941056 194.2180914 90.14941056 194.2180914 91 192 C92.85546875 191.76171875 92.85546875 191.76171875 95.1875 191.6875 C100.37323084 191.23549493 102.28211952 189.54888591 106 186 C107.66279327 184.9935725 109.32983484 183.99414593 111 183 C116.62110884 179.13479996 116.62110884 179.13479996 121 174 C122.33333333 173.33333333 123.66666667 172.66666667 125 172 C125.66 171.01 126.32 170.02 127 169 C127.66 169 128.32 169 129 169 C129 168.34 129 167.68 129 167 C130.375 165.375 130.375 165.375 132 164 C132.66 164 133.32 164 134 164 C134.33 163.01 134.66 162.02 135 161 C135.66 161 136.32 161 137 161 C137 160.34 137 159.68 137 159 C138.32 158.67 139.64 158.34 141 158 C141 162.95 141 167.9 141 173 C137.37 173.33 133.74 173.66 130 174 C129.67 175.32 129.34 176.64 129 178 C128.66666667 179.33333333 128.33333333 180.66666667 128 182 C126.68 182 125.36 182 124 182 C124 182.66 124 183.32 124 184 C119.59395339 186.35593238 114.88992459 188.02593121 110.22460938 189.7890625 C106.41213761 191.04131729 106.41213761 191.04131729 104 194 C103.01 194 102.02 194 101 194 C101 195.65 101 197.3 101 199 C100.34 199.33 99.68 199.66 99 200 C98.67 200.99 98.34 201.98 98 203 C95.04335481 204.4783226 92.25770263 204.06032783 89 204 C89 204.66 89 205.32 89 206 C89.66 206 90.32 206 91 206 C91.28571429 213.42857143 91.28571429 213.42857143 89 217 C87.68 216.67 86.36 216.34 85 216 C85 217.32 85 218.64 85 220 C85.66 220 86.32 220 87 220 C87 220.99 87 221.98 87 223 C86.34 223 85.68 223 85 223 C85 222.34 85 221.68 85 221 C84.34 221 83.68 221 83 221 C83.33 221.99 83.66 222.98 84 224 C80.7 223.67 77.4 223.34 74 223 C74 222.34 74 221.68 74 221 C67.44723293 218.71415102 60.89598561 218.39405632 54 218 C54 218.66 54 219.32 54 220 C52.35 220 50.7 220 49 220 C49 220.66 49 221.32 49 222 C45.7 222 42.4 222 39 222 C39 222.66 39 223.32 39 224 C40.98 224.33 42.96 224.66 45 225 C45 227 45 227 43.57006836 228.58154297 C39.76207177 230.68323008 36.16858728 230.5695819 31.87890625 230.6953125 C30.98316391 230.73308807 30.08742157 230.77086365 29.16453552 230.80978394 C26.29753612 230.92809126 23.43026431 231.02716685 20.5625 231.125 C16.8136297 231.26915036 13.06503752 231.4200905 9.31640625 231.5703125 C8.41540192 231.60537903 7.51439758 231.64044556 6.58609009 231.67657471 C-5.3874351 231.76528187 -5.3874351 231.76528187 -17 234 C-19.57178304 234.14139887 -22.12171512 234.23306587 -24.6953125 234.28125 C-25.44336151 234.29965942 -26.19141052 234.31806885 -26.96212769 234.33703613 C-30.1622695 234.41571069 -33.3626167 234.48366212 -36.56298828 234.55224609 C-38.89887324 234.60383909 -41.23456997 234.66112016 -43.5703125 234.71875 C-44.66401657 234.73911316 -44.66401657 234.73911316 -45.77981567 234.7598877 C-49.17902387 234.5495775 -49.17902387 234.5495775 -52 236 C-53.76747729 236.12562235 -55.54060292 236.17576558 -57.3125 236.1875 C-58.27800781 236.20167969 -59.24351562 236.21585938 -60.23828125 236.23046875 C-63.07788854 235.99350011 -64.64187838 235.56687552 -67 234 C-67.66 233.01 -68.32 232.02 -69 231 C-72.05429073 229.78715124 -72.05429073 229.78715124 -75 229 C-75 227.68 -75 226.36 -75 225 C-79.62 225 -84.24 225 -89 225 C-89 218.97416318 -88.99224943 217.84607706 -87 213 C-86.72664051 209.90638738 -86.72664051 209.90638738 -86.8046875 206.60546875 C-86.81113281 205.40341797 -86.81757813 204.20136719 -86.82421875 202.96289062 C-86.84097656 201.71701172 -86.85773438 200.47113281 -86.875 199.1875 C-86.88402344 197.92228516 -86.89304687 196.65707031 -86.90234375 195.35351562 C-86.92587606 192.23548436 -86.95875455 189.11783903 -87 186 C-87.66 186 -88.32 186 -89 186 C-89.4021875 184.2984375 -89.4021875 184.2984375 -89.8125 182.5625 C-90.204375 181.386875 -90.59625 180.21125 -91 179 C-91.99 178.67 -92.98 178.34 -94 178 C-94 177.34 -94 176.68 -94 176 C-96.97 175.34 -99.94 174.68 -103 174 C-103 173.34 -103 172.68 -103 172 C-105.64 171.34 -108.28 170.68 -111 170 C-111 169.34 -111 168.68 -111 168 C-113.31 167.67 -115.62 167.34 -118 167 C-118 166.34 -118 165.68 -118 165 C-118.556875 164.938125 -119.11375 164.87625 -119.6875 164.8125 C-122.9251338 163.67495299 -124.59171152 161.40828848 -127 159 C-127.9075 158.67 -128.815 158.34 -129.75 158 C-130.4925 157.67 -131.235 157.34 -132 157 C-132.37309899 155.34178227 -132.70700977 153.67422986 -133 152 C-134.88370471 150.6830333 -134.88370471 150.6830333 -137 150 C-139 149 -139 149 -140 146 C-140.825 145.5875 -141.65 145.175 -142.5 144.75 C-145 143 -145 143 -145.8125 139.3125 C-145.874375 138.219375 -145.93625 137.12625 -146 136 C-146.99 136 -147.98 136 -149 136 C-150.76462683 132.91190305 -151 131.76687864 -151 128 C-151.99 128 -152.98 128 -154 128 C-154.20496094 126.96359375 -154.40992188 125.9271875 -154.62109375 124.859375 C-154.89317769 123.48957311 -155.16531596 122.11978201 -155.4375 120.75 C-155.57220703 120.06808594 -155.70691406 119.38617188 -155.84570312 118.68359375 C-156.49220711 115.43530542 -157.15002695 112.20184022 -158 109 C-158.66 109 -159.32 109 -160 109 C-160 106.69 -160 104.38 -160 102 C-159.34 102 -158.68 102 -158 102 C-158.33 99.69 -158.66 97.38 -159 95 C-159.66 95 -160.32 95 -161 95 C-160.98839844 94.31035156 -160.97679687 93.62070312 -160.96484375 92.91015625 C-160.95582031 91.97042969 -160.94679687 91.03070313 -160.9375 90.0625 C-160.92589844 89.14597656 -160.91429687 88.22945313 -160.90234375 87.28515625 C-160.97752137 84.75618095 -161.17995991 82.4049481 -161.5 79.90625 C-162.18843493 74.08662304 -162.10835915 68.28983322 -162.0625 62.4375 C-162.05798828 61.33341797 -162.05347656 60.22933594 -162.04882812 59.09179688 C-162.0371514 56.394473 -162.02077525 53.69726653 -162 51 C-161.01 51 -160.02 51 -159 51 C-159 50.01 -159 49.02 -159 48 C-158.34 48 -157.68 48 -157 48 C-157 46.35 -157 44.7 -157 43 C-157.66 43 -158.32 43 -159 43 C-159.33 39.37 -159.66 35.74 -160 32 C-157.78263366 33.10868317 -155.96382007 34.49440461 -154 36 C-153.67 35.34 -153.34 34.68 -153 34 C-153 34.66 -153 35.32 -153 36 C-152.01 36.33 -151.02 36.66 -150 37 C-149.690625 37.804375 -149.38125 38.60875 -149.0625 39.4375 C-147.76151994 42.57515778 -146.93479501 42.556924 -144 44 C-142.96291581 45.04788715 -141.96442743 46.13488079 -141 47.25 C-132.5562152 55.89182667 -119.88916544 59.6859217 -108.0625 60.3125 C-104.74244224 60.60882574 -103.15708963 61.29284596 -100.875 63.75 C-99 67 -99 67 -99.1875 69.875 C-99.455625 70.57625 -99.72375 71.2775 -100 72 C-99.34 72 -98.68 72 -98 72 C-96.82573736 74.34852528 -96.88491827 75.73774065 -96.90234375 78.3515625 C-96.90717773 79.62773437 -96.90717773 79.62773437 -96.91210938 80.9296875 C-96.92467773 82.26386719 -96.92467773 82.26386719 -96.9375 83.625 C-96.94201172 84.5221875 -96.94652344 85.419375 -96.95117188 86.34375 C-96.96297409 88.56256648 -96.97943845 90.78125018 -97 93 C-94.36 93 -91.72 93 -89 93 C-89.66 93.99 -90.32 94.98 -91 96 C-90.525625 96.474375 -90.05125 96.94875 -89.5625 97.4375 C-87.33978456 101.08275332 -87.03118941 104.76603705 -87 109 C-87.495 110.485 -87.495 110.485 -88 112 C-87.21625 111.175 -86.4325 110.35 -85.625 109.5 C-83 107 -83 107 -81 107 C-80.505 113.93 -80.505 113.93 -80 121 C-78.02 121.495 -78.02 121.495 -76 122 C-73.1975307 125.66476754 -72.1294617 129.56903487 -71 134 C-71.66 134 -72.32 134 -73 134 C-72.67 134.99 -72.34 135.98 -72 137 C-72.33 137.99 -72.66 138.98 -73 140 C-71.35 140 -69.7 140 -68 140 C-68 143.33333333 -68 146.66666667 -68 150 C-66.68 149.67 -65.36 149.34 -64 149 C-64 148.01 -64 147.02 -64 146 C-62.35 145.34 -60.7 144.68 -59 144 C-58 147 -58 147 -58.9375 149.1875 C-59.288125 149.785625 -59.63875 150.38375 -60 151 C-60.66 151 -61.32 151 -62 151 C-62.0928125 152.3303125 -62.0928125 152.3303125 -62.1875 153.6875 C-63.18934521 157.77194586 -64.80095811 159.347136 -68 162 C-68.66 162 -69.32 162 -70 162 C-70 162.66 -70 163.32 -70 164 C-70.66 164.33 -71.32 164.66 -72 165 C-74.44174714 168.52696809 -74.16055659 171.82552867 -74 176 C-73.01 176 -72.02 176 -71 176 C-70.90589844 175.12730469 -70.81179688 174.25460937 -70.71484375 173.35546875 C-69.92780843 169.66113357 -68.65731521 167.43512475 -66.5625 164.3125 C-65.94503906 163.38050781 -65.32757813 162.44851563 -64.69140625 161.48828125 C-64.13324219 160.66714844 -63.57507813 159.84601563 -63 159 C-62.34 158.01 -61.68 157.02 -61 156 C-60.34 156 -59.68 156 -59 156 C-58.896875 155.443125 -58.79375 154.88625 -58.6875 154.3125 C-57.85295704 151.50540095 -56.68227302 149.39400391 -55 147 C-54.01 146.67 -53.02 146.34 -52 146 C-50.875 150.75 -50.875 150.75 -52 153 C-51.34 153 -50.68 153 -50 153 C-49.896875 152.0925 -49.79375 151.185 -49.6875 150.25 C-48.99350187 146.96928156 -48.29914332 145.39110905 -46 143 C-45.34 143 -44.68 143 -44 143 C-44 143.66 -44 144.32 -44 145 C-43.34 145 -42.68 145 -42 145 C-42.7115625 144.38125 -42.7115625 144.38125 -43.4375 143.75 C-45.22986242 141.74255409 -45.59446772 140.63595985 -46 138 C-45.58203125 136.1328125 -45.58203125 136.1328125 -44.8125 134.125 C-42.92029208 128.89972858 -41.44622812 123.58877633 -39.96484375 118.234375 C-39 115 -39 115 -38.00219727 112.70019531 C-36.86429012 109.63436023 -36.41981433 106.80481604 -36 103.5625 C-35.835 102.33789062 -35.67 101.11328125 -35.5 99.8515625 C-35.335 98.58054687 -35.17 97.30953125 -35 96 C-34.67265009 93.47838269 -34.33953754 90.95750517 -34 88.4375 C-33.855625 87.32246094 -33.71125 86.20742188 -33.5625 85.05859375 C-33.0232956 82.12666984 -32.19263201 79.72069176 -31 77 C-28.67782426 70.17860876 -27.92884406 63.12443154 -27 56 C-26.34 56 -25.68 56 -25 56 C-25 57.32 -25 58.64 -25 60 C-24.01 57.03 -23.02 54.06 -22 51 C-22.99 50.67 -23.98 50.34 -25 50 C-25 49.34 -25 48.68 -25 48 C-23.35 48.66 -21.7 49.32 -20 50 C-20.185625 49.46375 -20.37125 48.9275 -20.5625 48.375 C-21.11419324 45.38009386 -20.60597444 42.96254171 -20 40 C-21.32 40.33 -22.64 40.66 -24 41 C-24 39.02 -24 37.04 -24 35 C-23.34 35 -22.68 35 -22 35 C-22 36.32 -22 37.64 -22 39 C-21.34 39 -20.68 39 -20 39 C-20 38.01 -20 37.02 -20 36 C-19.34 36 -18.68 36 -18 36 C-17.01 31.545 -17.01 31.545 -16 27 C-15.01 27 -14.02 27 -13 27 C-12.01 28.485 -12.01 28.485 -11 30 C-11.20625 29.05125 -11.4125 28.1025 -11.625 27.125 C-11.74875 26.09375 -11.8725 25.0625 -12 24 C-11.34 23.34 -10.68 22.68 -10 22 C-9.54188325 20.02764667 -9.54188325 20.02764667 -9.375 17.875 C-9.189375 15.956875 -9.189375 15.956875 -9 14 C-7 16 -7 16 -6.8046875 18.1640625 C-6.82789063 18.97617187 -6.85109375 19.78828125 -6.875 20.625 C-6.89304687 21.44226563 -6.91109375 22.25953125 -6.9296875 23.1015625 C-6.95289063 23.72804688 -6.97609375 24.35453125 -7 25 C-6.67 25 -6.34 25 -6 25 C-5.67 23.68 -5.34 22.36 -5 21 C-4.01 23.31 -3.02 25.62 -2 28 C-2.33 27.113125 -2.66 26.22625 -3 25.3125 C-3.91222143 22.29076653 -4.18330958 20.11626294 -4 17 C-3.01 18.485 -3.01 18.485 -2 20 C-2 18.68 -2 17.36 -2 16 C-1.34 15.67 -0.68 15.34 0 15 C0.99 16.485 0.99 16.485 2 18 C1.67 16.02 1.34 14.04 1 12 C0.34 12 -0.32 12 -1 12 C-1 10.35 -1 8.7 -1 7 C-1.66 7 -2.32 7 -3 7 C-3 6.01 -3 5.02 -3 4 C-2.34 4 -1.68 4 -1 4 C-0.01 5.485 -0.01 5.485 1 7 C1.33 6.01 1.66 5.02 2 4 C1.34 4 0.68 4 0 4 C0 2.68 0 1.36 0 0 Z " fill="#745943" transform="translate(359,240)"/>
<path d="M0 0 C2.57781906 2.57781906 2.62129616 4.4401839 3 8 C2.67 8.33 2.34 8.66 2 9 C2.99 9.495 2.99 9.495 4 10 C4.66 9.01 5.32 8.02 6 7 C6 7.99 6 8.98 6 10 C6.66 10 7.32 10 8 10 C8 9.34 8 8.68 8 8 C8.66 8 9.32 8 10 8 C10 6.35 10 4.7 10 3 C10.495 4.98 10.495 4.98 11 7 C11.66 7 12.32 7 13 7 C13.66 5.68 14.32 4.36 15 3 C15.0625 5.75 15.0625 5.75 14 9 C11.18123265 10.79429938 8.12516566 11.84807944 5 13 C0.72353359 14.68377131 0.72353359 14.68377131 -2 18 C-1.01 17.67 -0.02 17.34 1 17 C1.495 17.99 1.495 17.99 2 19 C-0.375 20.0625 -0.375 20.0625 -3 21 C-3.66 20.67 -4.32 20.34 -5 20 C-5.495 21.485 -5.495 21.485 -6 23 C-10.0527516 23.98248524 -13.83861737 24.08159574 -18 24 C-18 24.66 -18 25.32 -18 26 C-17.278125 25.95875 -16.55625 25.9175 -15.8125 25.875 C-12.78221681 26.00967925 -10.76220719 26.80553203 -8 28 C-7.34 28 -6.68 28 -6 28 C-5.67 26.68 -5.34 25.36 -5 24 C-4.505 25.485 -4.505 25.485 -4 27 C-3.67 26.34 -3.34 25.68 -3 25 C-2.34 25 -1.68 25 -1 25 C-0.505 26.98 -0.505 26.98 0 29 C-3.96 29.495 -3.96 29.495 -8 30 C-8 30.99 -8 31.98 -8 33 C-8.66 33 -9.32 33 -10 33 C-9.67 33.99 -9.34 34.98 -9 36 C-9.99 36 -10.98 36 -12 36 C-12.33 36.99 -12.66 37.98 -13 39 C-13.66 39 -14.32 39 -15 39 C-15 39.66 -15 40.32 -15 41 C-17.90548882 43.04169485 -19.40142046 44 -23 44 C-23 44.66 -23 45.32 -23 46 C-22.18015625 45.57847656 -21.3603125 45.15695313 -20.515625 44.72265625 C-19.43796875 44.17480469 -18.3603125 43.62695312 -17.25 43.0625 C-16.18265625 42.51722656 -15.1153125 41.97195312 -14.015625 41.41015625 C-11.61554115 40.28783725 -9.58143248 39.49498341 -7 39 C-7 38.34 -7 37.68 -7 37 C-6.01 36.67 -5.02 36.34 -4 36 C-4 36.66 -4 37.32 -4 38 C-3.34 38.33 -2.68 38.66 -2 39 C-2 39.66 -2 40.32 -2 41 C-5.465 41.495 -5.465 41.495 -9 42 C-9.75241109 45.65456815 -10.40049704 49.31733897 -11 53 C-9.68 53 -8.36 53 -7 53 C-7.495 54.175625 -7.495 54.175625 -8 55.375 C-9.11866511 57.84332497 -9.11866511 57.84332497 -9 60 C-12.465 60.495 -12.465 60.495 -16 61 C-15.67 61.99 -15.34 62.98 -15 64 C-12.98491642 64.73323796 -12.98491642 64.73323796 -11 65 C-11 64.01 -11 63.02 -11 62 C-10.01 62 -9.02 62 -8 62 C-7.67 61.01 -7.34 60.02 -7 59 C-4.69 59 -2.38 59 0 59 C0.33 58.01 0.66 57.02 1 56 C5 56 5 56 7 57 C6.505 55.02 6.505 55.02 6 53 C6.66 53 7.32 53 8 53 C8.495 54.98 8.495 54.98 9 57 C9.66 57 10.32 57 11 57 C11 56.34 11 55.68 11 55 C13.26999825 54.49622232 15.54103003 53.99709981 17.8125 53.5 C19.07707031 53.2215625 20.34164062 52.943125 21.64453125 52.65625 C25 52 25 52 28 52 C28 52.66 28 53.32 28 54 C28.99 54 29.98 54 31 54 C31.33 53.01 31.66 52.02 32 51 C39.75 49.875 39.75 49.875 42 51 C42 50.34 42 49.68 42 49 C45.66323107 46.55784595 47.68833434 46.67514177 52.0625 46.5 C59.13891427 46.17292848 66.12194374 45.48333488 73.14672852 44.57226562 C76.49984467 44.16169526 78.75141161 43.9171372 82 45 C82 45.66 82 46.32 82 47 C82.99 46.34 83.98 45.68 85 45 C88.1875 44.875 88.1875 44.875 91 45 C91 45.99 91 46.98 91 48 C91.66 48 92.32 48 93 48 C92.67 48.66 92.34 49.32 92 50 C91.34 50 90.68 50 90 50 C89.67 51.32 89.34 52.64 89 54 C88.34 54 87.68 54 87 54 C87 53.01 87 52.02 87 51 C85.02 51 83.04 51 81 51 C82.32 51.66 83.64 52.32 85 53 C82.69 53 80.38 53 78 53 C78 52.34 78 51.68 78 51 C76.02 51 74.04 51 72 51 C72 51.66 72 52.32 72 53 C69.69 52.34 67.38 51.68 65 51 C65 51.66 65 52.32 65 53 C60.71 53 56.42 53 52 53 C51.67 53.66 51.34 54.32 51 55 C51 54.34 51 53.68 51 53 C50.01 53 49.02 53 48 53 C48 53.66 48 54.32 48 55 C47.01 55.495 47.01 55.495 46 56 C45.67 56.99 45.34 57.98 45 59 C44.34 59 43.68 59 43 59 C43 58.34 43 57.68 43 57 C41.68 57.33 40.36 57.66 39 58 C39 57.34 39 56.68 39 56 C37.35 56 35.7 56 34 56 C34 56.66 34 57.32 34 58 C30.9340292 59.5329854 27.88361398 58.96580649 24.5078125 58.83984375 C21.77107117 59.01462007 20.40955808 59.75857369 18 61 C14.96833346 61.59315215 11.93388905 62.00925553 8.875 62.4375 C6.06559653 62.85129408 6.06559653 62.85129408 3.984375 64.0234375 C1.3933412 65.29855256 -0.88037072 65.42002648 -3.75 65.625 C-5.22726563 65.73714844 -5.22726563 65.73714844 -6.734375 65.8515625 C-7.48203125 65.90054688 -8.2296875 65.94953125 -9 66 C-8.67 67.32 -8.34 68.64 -8 70 C-6.906875 69.484375 -5.81375 68.96875 -4.6875 68.4375 C-1 67 -1 67 2 68 C0.68 68.33 -0.64 68.66 -2 69 C-2 69.66 -2 70.32 -2 71 C-2.66 71 -3.32 71 -4 71 C-4.495 72.485 -4.495 72.485 -5 74 C-6.98 73.505 -6.98 73.505 -9 73 C-9 73.66 -9 74.32 -9 75 C-11.97 75 -14.94 75 -18 75 C-18 75.66 -18 76.32 -18 77 C-18.804375 77.28875 -19.60875 77.5775 -20.4375 77.875 C-23.1326468 78.73262568 -23.1326468 78.73262568 -24 81 C-23.34 80.67 -22.68 80.34 -22 80 C-19.6670134 79.95977609 -17.33293334 79.95679753 -15 80 C-15 79.34 -15 78.68 -15 78 C-13.98679688 78.10828125 -13.98679688 78.10828125 -12.953125 78.21875 C-12.06109375 78.3115625 -11.1690625 78.404375 -10.25 78.5 C-9.36828125 78.5928125 -8.4865625 78.685625 -7.578125 78.78125 C-4.76695165 79.05636313 -4.76695165 79.05636313 -1 79 C-1 79.99 -1 80.98 -1 82 C-10.9 82.33 -20.8 82.66 -31 83 C-31.33 81.68 -31.66 80.36 -32 79 C-32.495 80.485 -32.495 80.485 -33 82 C-40.02934983 83.16328292 -45.23000955 82.61668796 -52.0625 80.75 C-61.00817681 78.39330572 -69.85012931 76.71560075 -79 75 C-79 60.15 -79 45.3 -79 30 C-78.01 30 -77.02 30 -76 30 C-76 30.66 -76 31.32 -76 32 C-73.03 32 -70.06 32 -67 32 C-67 31.34 -67 30.68 -67 30 C-65.88625 29.87625 -64.7725 29.7525 -63.625 29.625 C-59.96896323 29.3534187 -59.96896323 29.3534187 -58 27 C-55.05206338 25.68118625 -52.15084949 24.70018878 -49 24 C-49 23.34 -49 22.68 -49 22 C-47.35 21.34 -45.7 20.68 -44 20 C-44 20.66 -44 21.32 -44 22 C-43.34 22 -42.68 22 -42 22 C-41.67 20.68 -41.34 19.36 -41 18 C-39.02 17.67 -37.04 17.34 -35 17 C-35 16.34 -35 15.68 -35 15 C-33.02 14.67 -31.04 14.34 -29 14 C-29 13.34 -29 12.68 -29 12 C-23.48791209 9.11868132 -23.48791209 9.11868132 -20.6875 8.4375 C-20.130625 8.293125 -19.57375 8.14875 -19 8 C-18.67 7.34 -18.34 6.68 -18 6 C-16.00390625 5.515625 -16.00390625 5.515625 -13.5625 5.25 C-12.75941406 5.15203125 -11.95632812 5.0540625 -11.12890625 4.953125 C-9 5 -9 5 -7 7 C-6.01 7.495 -6.01 7.495 -5 8 C-4.67 7.01 -4.34 6.02 -4 5 C-3.34 4.67 -2.68 4.34 -2 4 C-2 3.34 -2 2.68 -2 2 C-1.34 2 -0.68 2 0 2 C0 1.34 0 0.68 0 0 Z " fill="#57624F" transform="translate(79,73)"/>
<path d="M0 0 C0.68835938 0.00451172 1.37671875 0.00902344 2.0859375 0.01367188 C3.76566335 0.02533664 5.44534375 0.04326729 7.125 0.0625 C6.795 1.3825 6.465 2.7025 6.125 4.0625 C8.105 3.7325 10.085 3.4025 12.125 3.0625 C12.62 5.5375 12.62 5.5375 13.125 8.0625 C11.145 8.7225 9.165 9.3825 7.125 10.0625 C6.795 15.0125 6.465 19.9625 6.125 25.0625 C7.115 25.3925 8.105 25.7225 9.125 26.0625 C6.375 26.8125 6.375 26.8125 3.125 27.0625 C1.0625 25.25 1.0625 25.25 -0.875 23.0625 C-2.53892045 22.38900839 -4.20532028 21.7215841 -5.875 21.0625 C-6.535 20.0725 -7.195 19.0825 -7.875 18.0625 C-10.86652582 18.83729736 -10.86652582 18.83729736 -13.875 20.0625 C-14.77694747 22.76834242 -15.00545703 24.35505772 -15.02026367 27.13500977 C-15.02664352 27.94917862 -15.03302338 28.76334747 -15.03959656 29.60218811 C-15.04070938 30.4772551 -15.0418222 31.35232208 -15.04296875 32.25390625 C-15.04629715 33.1549559 -15.04962555 34.05600555 -15.05305481 34.98435974 C-15.05811591 36.88824961 -15.06046339 38.79214834 -15.06030273 40.69604492 C-15.06249413 43.61717183 -15.08067179 46.53792405 -15.09960938 49.45898438 C-15.10254242 51.30729037 -15.10452781 53.15559817 -15.10546875 55.00390625 C-15.11265427 55.88099747 -15.11983978 56.75808868 -15.12724304 57.66175842 C-15.33824712 62.34422796 -15.33824712 62.34422796 -12.875 66.0625 C-6.95695645 65.97482528 -2.0679616 61.31630788 2.53515625 58.01171875 C7.59795256 54.55442181 11.91706649 52.83292125 18.125 53.0625 C19.115 53.3925 20.105 53.7225 21.125 54.0625 C21.125 54.7225 21.125 55.3825 21.125 56.0625 C21.785 56.7225 22.445 57.3825 23.125 58.0625 C24.115 55.0925 24.115 55.0925 25.125 52.0625 C26.445 52.0625 27.765 52.0625 29.125 52.0625 C29.455 51.0725 29.785 50.0825 30.125 49.0625 C30.455 49.7225 30.785 50.3825 31.125 51.0625 C30.63 52.0525 30.63 52.0525 30.125 53.0625 C30.785 52.7325 31.445 52.4025 32.125 52.0625 C32.77852948 50.07953554 32.77852948 50.07953554 33.1875 47.75 C34.125 43.0625 34.125 43.0625 34.80859375 41.01953125 C35.228738 38.42086125 34.32578419 37.37496425 33.125 35.0625 C32.67578125 32.15234375 32.67578125 32.15234375 32.4375 29 C32.35113281 27.95714844 32.26476562 26.91429687 32.17578125 25.83984375 C32.125 23.0625 32.125 23.0625 33.125 20.0625 C35.435 20.0625 37.745 20.0625 40.125 20.0625 C40.75226108 21.60324808 41.3766901 23.14514923 42 24.6875 C42.34804688 25.54601562 42.69609375 26.40453125 43.0546875 27.2890625 C47.43250798 38.63304987 47.3177248 49.57191212 43.125 61.0625 C38.06075914 71.63602107 30.88405175 80.09678381 20.125 85.0625 C19.135 85.0625 18.145 85.0625 17.125 85.0625 C17.125 85.7225 17.125 86.3825 17.125 87.0625 C6.87330122 91.13668078 -5.83889644 90.8730737 -15.94458008 86.55297852 C-28.63800618 80.42301023 -37.70542432 72.13249924 -42.8125 58.625 C-45.62388447 47.57396043 -45.62649437 33.94048874 -40.4921875 23.671875 C-33.78987631 12.85751782 -26.22980912 4.78612872 -13.875 1.0625 C-9.23447145 0.07131914 -4.72551448 -0.05952683 0 0 Z " fill="#756054" transform="translate(249.875,206.9375)"/>
<path d="M0 0 C0 28.71 0 57.42 0 87 C-7.92 87 -15.84 87 -24 87 C-24.33 86.01 -24.66 85.02 -25 84 C-26.87387216 83.19787372 -26.87387216 83.19787372 -29.0625 82.8125 C-30.16271484 82.57466797 -30.16271484 82.57466797 -31.28515625 82.33203125 C-32.13400391 82.16767578 -32.13400391 82.16767578 -33 82 C-33 81.01 -33 80.02 -33 79 C-33.66 78.67 -34.32 78.34 -35 78 C-34.01 78 -33.02 78 -32 78 C-32.33 77.01 -32.66 76.02 -33 75 C-33.33 75.66 -33.66 76.32 -34 77 C-34.66 76.67 -35.32 76.34 -36 76 C-35.67 75.34 -35.34 74.68 -35 74 C-35.66 74 -36.32 74 -37 74 C-37 74.66 -37 75.32 -37 76 C-38.98 75.67 -40.96 75.34 -43 75 C-43 74.34 -43 73.68 -43 73 C-44.65 73 -46.3 73 -48 73 C-48 72.34 -48 71.68 -48 71 C-47.34 71 -46.68 71 -46 71 C-46 70.34 -46 69.68 -46 69 C-46.99 69 -47.98 69 -49 69 C-49 68.34 -49 67.68 -49 67 C-49.53625 66.87625 -50.0725 66.7525 -50.625 66.625 C-51.40875 66.41875 -52.1925 66.2125 -53 66 C-54.4540625 65.7215625 -54.4540625 65.7215625 -55.9375 65.4375 C-59.77798694 63.63482246 -60.84303567 61.61503752 -62.82421875 57.97265625 C-64.07724374 55.87040502 -65.0932699 54.53871786 -67 53 C-69.41063442 52.49669238 -69.41063442 52.49669238 -72.10546875 52.48828125 C-73.57983398 52.43510742 -73.57983398 52.43510742 -75.08398438 52.38085938 C-76.10814453 52.35830078 -77.13230469 52.33574219 -78.1875 52.3125 C-79.22326172 52.27833984 -80.25902344 52.24417969 -81.32617188 52.20898438 C-83.8840066 52.12647358 -86.44149723 52.05733428 -89 52 C-89 52.99 -89 53.98 -89 55 C-87.35 55.33 -85.7 55.66 -84 56 C-83.11932977 59.74284846 -83 63.16666864 -83 67 C-82.67 67.33 -82.34 67.66 -82 68 C-81.95936168 69.66617115 -81.957279 71.33388095 -82 73 C-82.33 72.01 -82.66 71.02 -83 70 C-83.66 70 -84.32 70 -85 70 C-85.33 68.02 -85.66 66.04 -86 64 C-86.99 64 -87.98 64 -89 64 C-89 65.65 -89 67.3 -89 69 C-89.66 69 -90.32 69 -91 69 C-91.33 67.35 -91.66 65.7 -92 64 C-94.31 64 -96.62 64 -99 64 C-99 63.01 -99 62.02 -99 61 C-109.23 61 -119.46 61 -130 61 C-130 60.34 -130 59.68 -130 59 C-133.96 59 -137.92 59 -142 59 C-142 58.67 -142 58.34 -142 58 C-140.74864258 57.9498877 -139.49728516 57.89977539 -138.20800781 57.84814453 C-133.5633886 57.65973617 -128.91934951 57.45935949 -124.27539062 57.25537109 C-122.26576309 57.16877159 -120.2559931 57.08541422 -118.24609375 57.00537109 C-115.35633424 56.8897236 -112.46728843 56.76240815 -109.578125 56.6328125 C-108.68007141 56.59938751 -107.78201782 56.56596252 -106.85675049 56.53152466 C-106.01618103 56.49163422 -105.17561157 56.45174377 -104.30957031 56.41064453 C-103.20370575 56.36401169 -103.20370575 56.36401169 -102.07550049 56.31643677 C-99.73581668 55.95972185 -98.05215482 55.15533675 -96 54 C-96 53.34 -96 52.68 -96 52 C-98.97 51.505 -98.97 51.505 -102 51 C-102 50.34 -102 49.68 -102 49 C-98.7 49 -95.4 49 -92 49 C-92 48.34 -92 47.68 -92 47 C-90.35 47 -88.7 47 -87 47 C-87 46.34 -87 45.68 -87 45 C-73.3667426 44.44646925 -73.3667426 44.44646925 -67 48 C-67 48.66 -67 49.32 -67 50 C-64.03 50 -61.06 50 -58 50 C-58 49.34 -58 48.68 -58 48 C-57.34 48 -56.68 48 -56 48 C-56 48.66 -56 49.32 -56 50 C-55.34 50 -54.68 50 -54 50 C-54 49.01 -54 48.02 -54 47 C-54.66 47 -55.32 47 -56 47 C-56 45.68 -56 44.36 -56 43 C-54.02 43.495 -54.02 43.495 -52 44 C-51.34 40.37 -50.68 36.74 -50 33 C-50.66 33 -51.32 33 -52 33 C-52 32.34 -52 31.68 -52 31 C-49.03 30.67 -46.06 30.34 -43 30 C-42.814375 28.88625 -42.814375 28.88625 -42.625 27.75 C-42.04513299 25.19858515 -41.26291261 23.2732427 -40 21 C-39.01 21 -38.02 21 -37 21 C-36.505 19.515 -36.505 19.515 -36 18 C-33.51982733 16.84922331 -31.12464699 15.8625226 -28.5625 14.9375 C-23.36862663 13.17956354 -23.36862663 13.17956354 -19 10 C-18.01 10.495 -18.01 10.495 -17 11 C-17 10.34 -17 9.68 -17 9 C-15.68 9 -14.36 9 -13 9 C-12.855625 8.236875 -12.71125 7.47375 -12.5625 6.6875 C-12 4 -12 4 -11 1 C-7.18939869 0.29105092 -3.91978817 0 0 0 Z " fill="#858583" transform="translate(500,413)"/>
<path d="M0 0 C29.37 0 58.74 0 89 0 C88.67 0.99 88.34 1.98 88 3 C87.01 3 86.02 3 85 3 C85 3.66 85 4.32 85 5 C83.37352673 6.9688887 81.87004941 8.0718148 79.625 9.3125 C76.91303298 11.05590737 75.36530379 12.99572113 73.390625 15.5078125 C70.31217898 18.81108885 66.23700015 20.58766662 62 22 C62 22.66 62 23.32 62 24 C60.35 24.66 58.7 25.32 57 26 C57 26.66 57 27.32 57 28 C56.01 28 55.02 28 54 28 C54 28.66 54 29.32 54 30 C53.195625 30.268125 52.39125 30.53625 51.5625 30.8125 C50.716875 31.204375 49.87125 31.59625 49 32 C48.67 32.99 48.34 33.98 48 35 C47.34 35 46.68 35 46 35 C46 35.66 46 36.32 46 37 C44.34151823 38.01351664 42.67334039 39.01120795 41 40 C40.401875 40.598125 39.80375 41.19625 39.1875 41.8125 C34.78151903 46.21848097 29.50806518 50.08396549 24 53 C23.34 53 22.68 53 22 53 C21.7525 53.66 21.505 54.32 21.25 55 C19.68182955 58.76360907 17.85494954 62.3711424 16 66 C15.34 66 14.68 66 14 66 C13.773125 66.639375 13.54625 67.27875 13.3125 67.9375 C10.8255721 73.74033178 7.5543619 79.15300263 4.3125 84.5625 C3.91675781 85.22378906 3.52101562 85.88507813 3.11328125 86.56640625 C2.74589844 87.03949219 2.37851562 87.51257813 2 88 C1.34 88 0.68 88 0 88 C0 58.96 0 29.92 0 0 Z " fill="#DADED9" transform="translate(0,0)"/>
<path d="M0 0 C20.79 0 41.58 0 63 0 C62.67 2.64 62.34 5.28 62 8 C61.34 8 60.68 8 60 8 C59.67 9.65 59.34 11.3 59 13 C57.35 13.33 55.7 13.66 54 14 C54 14.66 54 15.32 54 16 C55.32 16 56.64 16 58 16 C58 20.29 58 24.58 58 29 C59.65 28.67 61.3 28.34 63 28 C65.8125 28.4375 65.8125 28.4375 68 29 C68 29.99 68 30.98 68 32 C68.99 32 69.98 32 71 32 C71.12117188 32.81984375 71.24234375 33.6396875 71.3671875 34.484375 C71.53476562 35.56203125 71.70234375 36.6396875 71.875 37.75 C72.03742188 38.81734375 72.19984375 39.8846875 72.3671875 40.984375 C72.85225201 43.93104543 72.85225201 43.93104543 74.0703125 46.140625 C75 48 75 48 75 52 C75.99 52 76.98 52 78 52 C79.42258812 55.82320557 80.24042276 58.91281305 80 63 C71.91965893 60.57589768 66.3853959 58.47141523 62 51 C61.01 50.34 60.02 49.68 59 49 C58.28119581 47.26833537 57.56394512 45.53595867 56.86328125 43.796875 C54.14955975 38.14840491 47.93760341 34.59276908 43 31 C42.32066406 30.46632813 41.64132812 29.93265625 40.94140625 29.3828125 C38.94758628 27.819856 38.94758628 27.819856 36 27 C35 26 34 25 33 24 C29.19049511 21.46033007 25.21677099 19.73631747 21 18 C21 17.01 21 16.02 21 15 C20.34 15 19.68 15 19 15 C19 14.34 19 13.68 19 13 C17.68 12.67 16.36 12.34 15 12 C15 10.68 15 9.36 15 8 C14.37351563 7.79503906 13.74703125 7.59007812 13.1015625 7.37890625 C12.28429687 7.10949219 11.46703125 6.84007812 10.625 6.5625 C9.81289062 6.29566406 9.00078125 6.02882813 8.1640625 5.75390625 C6 5 6 5 4 4 C4 3.34 4 2.68 4 2 C2.68 1.67 1.36 1.34 0 1 C0 0.67 0 0.34 0 0 Z " fill="#ADA792" transform="translate(220,0)"/>
<path d="M0 0 C1.65 0 3.3 0 5 0 C5 1.32 5 2.64 5 4 C5.99 4 6.98 4 8 4 C8 12.58 8 21.16 8 30 C9.98 29.67 11.96 29.34 14 29 C16 32 16 32 16 35 C15.34 35 14.68 35 14 35 C14 36.65 14 38.3 14 40 C12.68 40 11.36 40 10 40 C10 39.01 10 38.02 10 37 C9.34 37 8.68 37 8 37 C8 38.65 8 40.3 8 42 C2.26696495 43.57300962 -2.15659442 44.24327778 -8 43 C-7.505 46.465 -7.505 46.465 -7 50 C-10.61973402 51.31626692 -13.09567131 52 -17 52 C-17 51.34 -17 50.68 -17 50 C-19.31 50 -21.62 50 -24 50 C-24.33 50.99 -24.66 51.98 -25 53 C-28.63 52.67 -32.26 52.34 -36 52 C-35.67 49.36 -35.34 46.72 -35 44 C-36.32 43.67 -37.64 43.34 -39 43 C-39 43.66 -39 44.32 -39 45 C-40.32 44.67 -41.64 44.34 -43 44 C-43.25 37.375 -43.25 37.375 -41 34 C-38.375 33.8125 -38.375 33.8125 -36 34 C-36 31.69 -36 29.38 -36 27 C-34.68 27.33 -33.36 27.66 -32 28 C-32.165 28.639375 -32.33 29.27875 -32.5 29.9375 C-33.03926667 31.80826821 -33.03926667 31.80826821 -33 33 C-32.34 33 -31.68 33 -31 33 C-31 33.66 -31 34.32 -31 35 C-31.99 35 -32.98 35 -34 35 C-32.865625 35.433125 -31.73125 35.86625 -30.5625 36.3125 C-29.386875 36.869375 -28.21125 37.42625 -27 38 C-26.67 38.99 -26.34 39.98 -26 41 C-25.67 39.35 -25.34 37.7 -25 36 C-25.66 36 -26.32 36 -27 36 C-28.61949011 33.42786866 -29.04408751 32.32330841 -28.625 29.25 C-28.41875 28.5075 -28.2125 27.765 -28 27 C-25.69 27.33 -23.38 27.66 -21 28 C-19.74335022 30.90600261 -19 32.79604584 -19 36 C-18.34 36 -17.68 36 -17 36 C-17 36.99 -17 37.98 -17 39 C-16.34 39 -15.68 39 -15 39 C-14.67 39.99 -14.34 40.98 -14 42 C-13.34 42.33 -12.68 42.66 -12 43 C-12.309375 42.38125 -12.61875 41.7625 -12.9375 41.125 C-15.55458389 33.42769444 -15.13757359 25.04041222 -15 17 C-15.66 17 -16.32 17 -17 17 C-17 16.01 -17 15.02 -17 14 C-15.68 14.33 -14.36 14.66 -13 15 C-12.67 17.97 -12.34 20.94 -12 24 C-11.34 24 -10.68 24 -10 24 C-10.01160156 23.31292969 -10.02320313 22.62585938 -10.03515625 21.91796875 C-10.04417969 21.01691406 -10.05320312 20.11585937 -10.0625 19.1875 C-10.07410156 18.29417969 -10.08570313 17.40085937 -10.09765625 16.48046875 C-10 14 -10 14 -9 11 C-7.68 11 -6.36 11 -5 11 C-4.896875 10.236875 -4.79375 9.47375 -4.6875 8.6875 C-3.93772808 5.75657342 -3.16526733 4.98482838 -1 3 C-0.67 2.01 -0.34 1.02 0 0 Z " fill="#987E8D" transform="translate(418,52)"/>
<path d="M0 0 C5.24065525 0 8.83879363 2.54077554 13.12109375 5.234375 C16.39423165 7.24178114 19.73771889 9.06949996 23.125 10.875 C24.24132812 11.47054687 25.35765625 12.06609375 26.5078125 12.6796875 C27.33023437 13.11539063 28.15265625 13.55109375 29 14 C29 14.66 29 15.32 29 16 C29.969375 16.309375 30.93875 16.61875 31.9375 16.9375 C35 18 35 18 36 19 C35.91796875 22.3515625 35.91796875 22.3515625 35 26 C32.55078125 27.8984375 32.55078125 27.8984375 29.3125 29.375 C24.13711828 31.89707136 19.30976389 34.58552925 14.5 37.75 C3.38338614 45.04259846 3.38338614 45.04259846 0.75 44.75 C-1 44 -1 44 -2 43 C-2.11356724 39.9936175 -2.16418912 37.01107558 -2.16796875 34.00390625 C-2.17129715 33.1000267 -2.17462555 32.19614716 -2.17805481 31.26487732 C-2.18312796 29.34903473 -2.18546302 27.43318328 -2.18530273 25.51733398 C-2.18748813 22.57846582 -2.20563665 19.63997348 -2.22460938 16.70117188 C-2.22754337 14.84375129 -2.22952813 12.98632891 -2.23046875 11.12890625 C-2.23765427 10.24554092 -2.24483978 9.3621756 -2.25224304 8.45204163 C-2.22882139 2.22882139 -2.22882139 2.22882139 0 0 Z " fill="#F6F2ED" transform="translate(237,229)"/>
<path d="M0 0 C14.85 0 29.7 0 45 0 C45.495 0.99 45.495 0.99 46 2 C44.68 2 43.36 2 42 2 C42.185625 2.78375 42.37125 3.5675 42.5625 4.375 C43 7 43 7 42 9 C40.68 8.67 39.36 8.34 38 8 C38.495 10.475 38.495 10.475 39 13 C38.34 13 37.68 13 37 13 C37 11.68 37 10.36 37 9 C36.34 9 35.68 9 35 9 C35.495 11.97 35.495 11.97 36 15 C33.6875 15.625 33.6875 15.625 31 16 C30.01 15.34 29.02 14.68 28 14 C27.67 14.66 27.34 15.32 27 16 C26.01 15.67 25.02 15.34 24 15 C23.01 15 22.02 15 21 15 C21 14.34 21 13.68 21 13 C19.68 13.33 18.36 13.66 17 14 C17 14.66 17 15.32 17 16 C16.01 16 15.02 16 14 16 C14 16.66 14 17.32 14 18 C11 20 11 20 8 20 C7.34 21.98 6.68 23.96 6 26 C5.34 26 4.68 26 4 26 C4.83333333 28.16666667 4.83333333 28.16666667 7 29 C7.185625 27.7934375 7.185625 27.7934375 7.375 26.5625 C7.58125 25.716875 7.7875 24.87125 8 24 C8.66 23.67 9.32 23.34 10 23 C10.6496875 22.2265625 10.6496875 22.2265625 11.3125 21.4375 C13 20 13 20 15.5 19.5 C18 20 18 20 19.8125 22.5 C20.204375 23.325 20.59625 24.15 21 25 C20.01 25.33 19.02 25.66 18 26 C18 25.34 18 24.68 18 24 C17.34 24 16.68 24 16 24 C16 25.32 16 26.64 16 28 C15.01 28 14.02 28 13 28 C12.87625 28.886875 12.7525 29.77375 12.625 30.6875 C12.05587264 33.70387502 11.23385564 36.20326054 10 39 C9.34 39 8.68 39 8 39 C8 38.01 8 37.02 8 36 C7.67 36.99 7.34 37.98 7 39 C6.34 39 5.68 39 5 39 C4.67 36.36 4.34 33.72 4 31 C4 32.20578611 4.01896058 33.41151016 4.03515625 34.6171875 C4.04417969 35.69226562 4.05320312 36.76734375 4.0625 37.875 C4.07410156 38.94492187 4.08570313 40.01484375 4.09765625 41.1171875 C4 44 4 44 3 47 C2.34 47 1.68 47 1 47 C0.06487566 44.19462697 -0.12182907 42.51834636 -0.11352539 39.62036133 C-0.11334412 38.28092468 -0.11334412 38.28092468 -0.11315918 36.91442871 C-0.10804321 35.97973755 -0.10292725 35.04504639 -0.09765625 34.08203125 C-0.09664917 33.22009155 -0.09564209 32.35815186 -0.09460449 31.47009277 C-0.08937322 28.25088165 -0.07541195 25.03168948 -0.0625 21.8125 C-0.041875 14.614375 -0.02125 7.41625 0 0 Z " fill="#A0A5AC" transform="translate(0,0)"/>
<path d="M0 0 C7.59 0 15.18 0 23 0 C23 0.99 23 1.98 23 3 C23.99 3 24.98 3 26 3 C26.020625 3.928125 26.04125 4.85625 26.0625 5.8125 C26.62844359 9.00696214 26.62844359 9.00696214 28.625 10.06640625 C30.38218533 10.79974771 32.19037549 11.40775925 34 12 C34 12.66 34 13.32 34 14 C34.86625 14.061875 34.86625 14.061875 35.75 14.125 C39.11600658 15.43400256 40.1308624 18.00937984 42 21 C42.66 21.33 43.32 21.66 44 22 C44 22.66 44 23.32 44 24 C44.99 24 45.98 24 47 24 C47 24.99 47 25.98 47 27 C47.598125 27.268125 48.19625 27.53625 48.8125 27.8125 C51.01054464 29.00572423 52.24678871 30.24678871 54 32 C54.886875 32.515625 55.77375 33.03125 56.6875 33.5625 C57.450625 34.036875 58.21375 34.51125 59 35 C59 35.66 59 36.32 59 37 C59.556875 37.226875 60.11375 37.45375 60.6875 37.6875 C63.68041199 39.38617978 65.73527237 41.42072687 68 44 C68 44.99 68 45.98 68 47 C69.485 47.495 69.485 47.495 71 48 C71 49.32 71 50.64 71 52 C71.598125 52.0825 72.19625 52.165 72.8125 52.25 C75.71536869 53.24526926 76.44004778 54.376444 78 57 C78.72351427 58.98014432 79.40265389 60.97821315 80 63 C71.91965893 60.57589768 66.3853959 58.47141523 62 51 C61.01 50.34 60.02 49.68 59 49 C58.28119581 47.26833537 57.56394512 45.53595867 56.86328125 43.796875 C54.14955975 38.14840491 47.93760341 34.59276908 43 31 C42.32066406 30.46632813 41.64132812 29.93265625 40.94140625 29.3828125 C38.94758628 27.819856 38.94758628 27.819856 36 27 C35 26 34 25 33 24 C29.19049511 21.46033007 25.21677099 19.73631747 21 18 C21 17.01 21 16.02 21 15 C20.34 15 19.68 15 19 15 C19 14.34 19 13.68 19 13 C17.68 12.67 16.36 12.34 15 12 C15 10.68 15 9.36 15 8 C14.37351563 7.79503906 13.74703125 7.59007812 13.1015625 7.37890625 C12.28429687 7.10949219 11.46703125 6.84007812 10.625 6.5625 C9.81289062 6.29566406 9.00078125 6.02882813 8.1640625 5.75390625 C6 5 6 5 4 4 C4 3.34 4 2.68 4 2 C2.68 1.67 1.36 1.34 0 1 C0 0.67 0 0.34 0 0 Z " fill="#7A5137" transform="translate(220,0)"/>
<path d="M0 0 C0.66 0.33 1.32 0.66 2 1 C1.34 2.65 0.68 4.3 0 6 C0.598125 5.773125 1.19625 5.54625 1.8125 5.3125 C2.8953125 5.1578125 2.8953125 5.1578125 4 5 C5.75 6.4375 5.75 6.4375 7 8 C6.34 6.68 5.68 5.36 5 4 C7 5 9 6 11 7 C11 7.66 11 8.32 11 9 C14.465 8.505 14.465 8.505 18 8 C17.505 5.525 17.505 5.525 17 3 C16.34 3 15.68 3 15 3 C14.67 4.32 14.34 5.64 14 7 C12.68 6.34 11.36 5.68 10 5 C10.66 4.67 11.32 4.34 12 4 C12.66 4.33 13.32 4.66 14 5 C13.34 3.35 12.68 1.7 12 0 C13.98 0 15.96 0 18 0 C19.4606285 2.64738916 20 3.89448334 20 7 C21.32 6.01 22.64 5.02 24 4 C27 6 27 6 27.75 9 C28 12 28 12 27 14 C28.11375 13.87625 28.11375 13.87625 29.25 13.75 C32.79788974 14.07253543 33.66840101 15.42720112 36 18 C36.66 18 37.32 18 38 18 C38 19.32 38 20.64 38 22 C38.66 22 39.32 22 40 22 C39.814375 20.906875 39.62875 19.81375 39.4375 18.6875 C39 15 39 15 40 12 C40.13277344 12.60328125 40.26554687 13.2065625 40.40234375 13.828125 C40.66724609 15.02695313 40.66724609 15.02695313 40.9375 16.25 C41.19853516 17.43335938 41.19853516 17.43335938 41.46484375 18.640625 C41.9472157 20.76728673 42.47110699 22.88442798 43 25 C40.03 24.67 37.06 24.34 34 24 C34 23.34 34 22.68 34 22 C33.40832031 21.81824219 32.81664062 21.63648438 32.20703125 21.44921875 C27.7697151 20.03767446 23.91711959 18.57410716 20 16 C17.62358039 14.57713529 17.62358039 14.57713529 15 14 C14.01 14.33 13.02 14.66 12 15 C11.67 15.99 11.34 16.98 11 18 C10.7525 17.195625 10.505 16.39125 10.25 15.5625 C9.27761141 12.828919 9.27761141 12.828919 6.875 12.1875 C6.25625 12.125625 5.6375 12.06375 5 12 C5 11.67 5 11.34 5 11 C6.65 11 8.3 11 10 11 C10 10.34 10 9.68 10 9 C8.02 9 6.04 9 4 9 C4 9.66 4 10.32 4 11 C1 11 1 11 -0.6875 9.5 C-1.120625 9.005 -1.55375 8.51 -2 8 C-1.67 9.65 -1.34 11.3 -1 13 C1.97 13.33 4.94 13.66 8 14 C8.495 15.485 8.495 15.485 9 17 C8.34 17 7.68 17 7 17 C7 16.34 7 15.68 7 15 C6.34 15 5.68 15 5 15 C4.67 15.99 4.34 16.98 4 18 C3.34 17.67 2.68 17.34 2 17 C2 17.99 2 18.98 2 20 C0.700625 19.979375 -0.59875 19.95875 -1.9375 19.9375 C-3.29165633 19.91600546 -4.64756083 19.92851801 -6 20 C-6.33 20.33 -6.66 20.66 -7 21 C-13.63394007 21.53649282 -19.35488264 21.76341157 -25 18 C-25 18.66 -25 19.32 -25 20 C-25.66 20 -26.32 20 -27 20 C-26.8125 17.625 -26.8125 17.625 -26 15 C-23.4375 13.6875 -23.4375 13.6875 -21 13 C-21 13.99 -21 14.98 -21 16 C-20.34 16 -19.68 16 -19 16 C-19 14.68 -19 13.36 -19 12 C-16.69 11.34 -14.38 10.68 -12 10 C-14.97 10 -17.94 10 -21 10 C-20.3125 7.5625 -20.3125 7.5625 -19 5 C-16.375 4.1875 -16.375 4.1875 -14 4 C-14 3.34 -14 2.68 -14 2 C-12.35 2 -10.7 2 -9 2 C-9 2.66 -9 3.32 -9 4 C-7.68 3.67 -6.36 3.34 -5 3 C-5 3.66 -5 4.32 -5 5 C-4.34 5 -3.68 5 -3 5 C-2.87625 4.360625 -2.7525 3.72125 -2.625 3.0625 C-2.315625 2.0415625 -2.315625 2.0415625 -2 1 C-1.34 0.67 -0.68 0.34 0 0 Z " fill="#ACB6A4" transform="translate(127,127)"/>
<path d="M0 0 C0 0.99 0 1.98 0 3 C1.8253125 3.4021875 1.8253125 3.4021875 3.6875 3.8125 C7.22290743 4.71676051 10.1611175 5.60469289 13 8 C13.3125 10.6875 13.3125 10.6875 13 13 C13.9590625 13.1546875 13.9590625 13.1546875 14.9375 13.3125 C15.618125 13.539375 16.29875 13.76625 17 14 C17.33 14.99 17.66 15.98 18 17 C19.32 17 20.64 17 22 17 C22 18.98 22 20.96 22 23 C22.99 23 23.98 23 25 23 C25 22.01 25 21.02 25 20 C25.66 20 26.32 20 27 20 C26.125 23.875 26.125 23.875 25 25 C20.59004044 25.28279958 16.16793857 25.23187512 11.75 25.25 C10.50863281 25.270625 9.26726562 25.29125 7.98828125 25.3125 C6.79074219 25.31765625 5.59320313 25.3228125 4.359375 25.328125 C3.26077148 25.3374707 2.16216797 25.34681641 1.03027344 25.35644531 C-2.40517622 24.95233989 -4.27539727 24.10925028 -7 22 C-8.5783926 16.17208887 -8.08272706 10.00230803 -8 4 C-8 2.68 -8 1.36 -8 0 C-4.71023192 -1.09658936 -3.28696233 -0.79953138 0 0 Z " fill="#BEC1C3" transform="translate(286,475)"/>
<path d="M0 0 C0.33 0.99 0.66 1.98 1 3 C5.62 3 10.24 3 15 3 C15 4.32 15 5.64 15 7 C16.134375 7.28875 17.26875 7.5775 18.4375 7.875 C19.613125 8.24625 20.78875 8.6175 22 9 C22.495 9.99 22.495 9.99 23 11 C22.01 10.855625 21.02 10.71125 20 10.5625 C12.52819631 9.42692188 12.52819631 9.42692188 5 9 C3.12157211 12.17491146 2.7993431 14.39857907 2.9375 18.0625 C3.04532726 21.18011416 3.00098257 22.9970523 2 26 C2.33 26.66 2.66 27.32 3 28 C2.67 31.3 2.34 34.6 2 38 C-5.59 38 -13.18 38 -21 38 C-21 37.34 -21 36.68 -21 36 C-20.34 36 -19.68 36 -19 36 C-19 35.34 -19 34.68 -19 34 C-17.3563186 32.31066078 -15.6857124 30.64740076 -14 29 C-6.91787955 20.84440854 -3.442309 10.10418935 0 0 Z " fill="#6D695B" transform="translate(269,462)"/>
</svg>
